<?xml version="1.0" encoding="UTF-8"?>
<svg width="140px" height="140px" viewBox="0 0 140 140" version="1.1" xmlns="http://www.w3.org/2000/svg" xmlns:xlink="http://www.w3.org/1999/xlink">
    <!-- Generator: Sketch 53.2 (72643) - https://sketchapp.com -->
    <title>Above ground pool</title>
    <desc>Created with Sketch.</desc>
    <defs>
        <path d="M97.9926109,33.2014442 C97.5338882,42.369252 75.7748195,49.7525554 49,49.7525554 C22.2251805,49.7525554 0.466111788,42.369252 0.00738905759,33.2014442 L0,0.0992220223 L98,0.985888689 L98,33.2014442 Z" id="path-1"></path>
        <path d="M0,0 L21.2600402,0 L21.2600402,1.93529924 L0,1.93529924 L0,0 Z M0,4.8382481 L21.2600402,4.8382481 L21.2600402,6.77354734 L0,6.77354734 L0,4.8382481 Z M0,9.19267139 L21.2600402,9.19267139 L21.2600402,11.1279706 L0,11.1279706 L0,9.19267139 Z" id="path-3"></path>
        <path d="M0,0 L21.2600402,0 L21.2600402,1.93529924 L0,1.93529924 L0,0 Z M0,4.8382481 L21.2600402,4.8382481 L21.2600402,6.77354734 L0,6.77354734 L0,4.8382481 Z M0,9.19267139 L21.2600402,9.19267139 L21.2600402,11.1279706 L0,11.1279706 L0,9.19267139 Z" id="path-5"></path>
        <path d="M0,0 L21.2600402,0 L21.2600402,1.93529924 L0,1.93529924 L0,0 Z M0,4.8382481 L21.2600402,4.8382481 L21.2600402,6.77354734 L0,6.77354734 L0,4.8382481 Z M0,9.19267139 L21.2600402,9.19267139 L21.2600402,11.1279706 L0,11.1279706 L0,9.19267139 Z" id="path-7"></path>
        <path d="M0,0 L21.2600402,0 L21.2600402,1.93529924 L0,1.93529924 L0,0 Z M0,4.8382481 L21.2600402,4.8382481 L21.2600402,6.77354734 L0,6.77354734 L0,4.8382481 Z M0,9.19267139 L21.2600402,9.19267139 L21.2600402,11.1279706 L0,11.1279706 L0,9.19267139 Z" id="path-9"></path>
        <path d="M0,0 L21.2600402,0 L21.2600402,1.93529924 L0,1.93529924 L0,0 Z M0,4.8382481 L21.2600402,4.8382481 L21.2600402,6.77354734 L0,6.77354734 L0,4.8382481 Z M0,9.19267139 L21.2600402,9.19267139 L21.2600402,11.1279706 L0,11.1279706 L0,9.19267139 Z" id="path-11"></path>
        <path d="M0,0 L21.2600402,0 L21.2600402,1.93529924 L0,1.93529924 L0,0 Z M0,4.8382481 L21.2600402,4.8382481 L21.2600402,6.77354734 L0,6.77354734 L0,4.8382481 Z M0,9.19267139 L21.2600402,9.19267139 L21.2600402,11.1279706 L0,11.1279706 L0,9.19267139 Z" id="path-13"></path>
    </defs>
    <g id="Quote-Flow" stroke="none" stroke-width="1" fill="none" fill-rule="evenodd">
        <g id="QF.-10.-QF.-Risk-factors" transform="translate(-523.000000, -290.000000)">
            <g id="Above-ground-pool" transform="translate(523.000000, 290.000000)">
                <g>
                    <circle id="Mask" stroke="#FFFFFF" stroke-width="8" fill="#F3F3F3" cx="70" cy="70" r="66"></circle>
                    <g transform="translate(21.000000, 39.090100)">
                        <g id="Rectangle" transform="translate(0.000000, 16.047445)">
                            <mask id="mask-2" fill="white">
                                <use xlink:href="#path-1"></use>
                            </mask>
                            <use id="Mask" fill="#DB8BD1" xlink:href="#path-1"></use>
                            <polygon fill="#454545" opacity="0.20219494" mask="url(#mask-2)" transform="translate(2.624765, 12.811808) scale(1, -1) rotate(-2.000000) translate(-2.624765, -12.811808) " points="-6.86878974 -23.5819013 12.1316197 -23.5881922 12.118319 49.2055168 -6.88209045 49.2118078"></polygon>
                            <polygon fill="#454545" opacity="0.20219494" mask="url(#mask-2)" transform="translate(16.706534, 21.240827) scale(1, -1) rotate(-2.000000) translate(-16.706534, -21.240827) " points="14.6094722 -15.1528825 18.8065342 -15.1591734 18.8035962 57.6345357 14.6065342 57.6408266"></polygon>
                        </g>
                        <ellipse id="Oval" fill="#DB8BD1" cx="49" cy="17.0333333" rx="49" ry="16.8466667"></ellipse>
                        <ellipse id="Oval" fill="#454545" opacity="0.395507812" cx="49" cy="17.0333333" rx="49" ry="16.8466667"></ellipse>
                        <ellipse id="Oval" fill="#93EAFF" cx="49" cy="17.0333333" rx="41.3253012" ry="12.7088889"></ellipse>
                        <path d="M55.4869252,17.4377778 L55.4869252,17.4377778 C54.3628554,17.4377778 53.4841432,16.5473815 52.7450495,15.7983113 C51.7040604,14.7421286 51.1699708,14.3181502 50.4336825,14.6739743 C50.0465485,14.8638028 49.6214348,15.2898718 49.1710732,15.740401 C48.2647393,16.6491948 47.1367853,17.7785493 45.665935,17.3324104 C44.8334026,17.0809084 44.1784685,16.4271707 43.5444664,15.7949663 C42.4104702,14.6616396 41.8625698,14.2554316 41.0086739,14.8132098 C40.7074258,15.0097283 40.3679822,15.3507089 40.0093329,15.7109232 C39.0932884,16.6326789 37.9513078,17.7777131 36.4778679,17.3324104 C35.6746835,17.0901072 35.0257916,16.441805 34.3993423,15.813991 C33.3553321,14.7711882 32.7862839,14.3191956 32.055822,14.673138 C31.5646754,14.9139778 31.1471145,15.341092 30.7051688,15.7937119 C30.2049589,16.3057055 29.6887802,16.8348421 28.9937084,17.1731049 C27.3374913,17.9761132 26.1374621,16.7756775 25.172864,15.8089735 C24.0326097,14.6656118 23.4840619,14.2556406 22.6284397,14.8132098 C22.2320265,15.072447 21.8815774,15.4257623 21.509549,15.7995657 C21.1073094,16.2045193 20.6906116,16.6232711 20.1791804,16.9581889 C18.3639232,18.143363 16.9955749,16.7928206 15.9958024,15.8062556 C14.8432479,14.6685386 14.2903842,14.2604491 13.4420989,14.8127916 C13.0797812,15.0502864 12.7524221,15.3737058 12.4058573,15.7159407 L12.3152239,15.8047922 C12.0666295,16.0496042 11.6615846,16.0531582 11.4084585,15.8114822 C11.155764,15.5710606 11.1527428,15.1776053 11.4011215,14.9332115 L11.4902443,14.8454053 C11.8657255,14.4747379 12.25437,14.0908995 12.7245847,13.7831598 C14.5422156,12.5969404 15.911427,13.9489462 16.9116311,14.9363474 C18.0633225,16.0734373 18.6161861,16.478809 19.4614503,15.9279299 C19.8606688,15.6670202 20.2128442,15.3128686 20.58552,14.9378109 C20.9871123,14.5334844 21.4020837,14.1157779 21.9117885,13.7827417 C23.7408565,12.5875326 25.1020836,13.9493644 26.0958139,14.9455462 C27.1458664,15.9975476 27.6849192,16.4194354 28.4181865,16.0619388 C28.9117068,15.8215172 29.3301309,15.3933576 29.7735871,14.9394834 C30.2716391,14.4297895 30.7858757,13.9025344 31.4777105,13.5640626 C33.1268065,12.7593818 34.3425886,13.9727793 35.3199185,14.9495184 C35.8354499,15.465066 36.3682447,15.9973386 36.8600387,16.1453547 C37.5264098,16.3493995 38.2042181,15.7355926 39.085304,14.8487503 C39.4931542,14.4389883 39.8783461,14.052223 40.2928859,13.7821145 C42.1269172,12.5875326 43.4767072,13.9428834 44.46569,14.9292393 C44.9872636,15.4502226 45.5265322,15.9883489 46.0487531,16.1453547 C46.7125348,16.347727 47.3543054,15.7742691 48.2487706,14.8769738 C48.7535122,14.3718793 49.2750858,13.8490145 49.8575131,13.5640626 C51.5176146,12.7572912 52.7135437,13.9671347 53.6723154,14.9394834 C54.7133045,15.9956661 55.2484731,16.4221532 55.9856246,16.0621479 C56.4113857,15.8514131 56.8118989,15.4581669 57.1998961,15.0774645 L57.3503044,14.9304937 C57.5995462,14.6871452 58.0061016,14.6860999 58.2570698,14.9288212 C58.5078221,15.1707063 58.5089011,15.5645796 58.2590119,15.807301 L58.1129195,15.9500905 C57.6757214,16.3801316 57.1796115,16.8674558 56.5652466,17.1708052 C56.1815653,17.357916 55.8237792,17.4377778 55.4869252,17.4377778" id="Path" fill="#60B2E5"></path>
                        <path d="M83.2339131,17.4377778 L83.2339131,17.4377778 C82.1098434,17.4377778 81.2311312,16.5473815 80.4920375,15.7983113 C79.4510484,14.7421286 78.9169588,14.3181502 78.1806704,14.6739743 C77.7935364,14.8638028 77.3684227,15.2898718 76.9180611,15.740401 C76.0117273,16.6491948 74.8837733,17.7785493 73.4129229,17.3324104 C72.5803906,17.0809084 71.9254565,16.4271707 71.2914544,15.7949663 C70.1574581,14.6616396 69.6095578,14.2554316 68.7556618,14.8132098 C68.4544137,15.0097283 68.1149701,15.3507089 67.7563209,15.7109232 C66.8402763,16.6326789 65.6982957,17.7777131 64.2248559,17.3324104 C63.4216715,17.0901072 62.7727796,16.441805 62.1463303,15.813991 C61.10232,14.7711882 60.5332719,14.3191956 59.80281,14.673138 C59.3116633,14.9139778 58.8941024,15.341092 58.4521568,15.7937119 C57.9519468,16.3057055 57.4357681,16.8348421 56.7406964,17.1731049 C55.0844792,17.9761132 53.8844501,16.7756775 52.9198519,15.8089735 C51.7795977,14.6656118 51.2310499,14.2556406 50.3754276,14.8132098 C49.9790145,15.072447 49.6285654,15.4257623 49.2565369,15.7995657 C48.8542973,16.2045193 48.4375996,16.6232711 47.9261683,16.9581889 C46.1109112,18.143363 44.7425629,16.7928206 43.7427903,15.8062556 C42.5902358,14.6685386 42.0373722,14.2604491 41.1890869,14.8127916 C40.8267691,15.0502864 40.49941,15.3737058 40.1528452,15.7159407 L40.0622118,15.8047922 C39.8136174,16.0496042 39.4085725,16.0531582 39.1554464,15.8114822 C38.9027519,15.5710606 38.8997308,15.1776053 39.1481094,14.9332115 L39.2372323,14.8454053 C39.6127134,14.4747379 40.001358,14.0908995 40.4715726,13.7831598 C42.2892035,12.5969404 43.658415,13.9489462 44.6586191,14.9363474 C45.8103104,16.0734373 46.3631741,16.478809 47.2084383,15.9279299 C47.6076567,15.6670202 47.9598322,15.3128686 48.332508,14.9378109 C48.7341002,14.5334844 49.1490716,14.1157779 49.6587765,13.7827417 C51.4878445,12.5875326 52.8490716,13.9493644 53.8428019,14.9455462 C54.8928544,15.9975476 55.4319072,16.4194354 56.1651744,16.0619388 C56.6586948,15.8215172 57.0771189,15.3933576 57.5205751,14.9394834 C58.0186271,14.4297895 58.5328636,13.9025344 59.2246985,13.5640626 C60.8737944,12.7593818 62.0895765,13.9727793 63.0669065,14.9495184 C63.5824378,15.465066 64.1152326,15.9973386 64.6070266,16.1453547 C65.2733978,16.3493995 65.951206,15.7355926 66.832292,14.8487503 C67.2401422,14.4389883 67.6253341,14.052223 68.0398739,13.7821145 C69.8739051,12.5875326 71.2236952,13.9428834 72.212678,14.9292393 C72.7342515,15.4502226 73.2735202,15.9883489 73.7957411,16.1453547 C74.4595227,16.347727 75.1012934,15.7742691 75.9957585,14.8769738 C76.5005002,14.3718793 77.0220737,13.8490145 77.6045011,13.5640626 C79.2646025,12.7572912 80.4605316,13.9671347 81.4193033,14.9394834 C82.4602925,15.9956661 82.995461,16.4221532 83.7326125,16.0621479 C84.1583736,15.8514131 84.5588869,15.4581669 84.9468841,15.0774645 L85.0972923,14.9304937 C85.3465341,14.6871452 85.7530896,14.6860999 86.0040577,14.9288212 C86.2548101,15.1707063 86.2558891,15.5645796 86.0059999,15.807301 L85.8599075,15.9500905 C85.4227093,16.3801316 84.9265994,16.8674558 84.3122346,17.1708052 C83.9285533,17.357916 83.5707672,17.4377778 83.2339131,17.4377778" id="Path" fill="#60B2E5"></path>
                        <g id="Group-4" transform="translate(36.400000, 7.000000)" fill="#60B2E5">
                            <path d="M23.434593,3.54666667 L23.434593,3.54666667 C22.4536635,3.54666667 21.6908413,2.79124623 21.0967478,2.20332479 C20.2322899,1.34698622 19.8620609,1.10348456 19.3724819,1.33547066 C19.0759887,1.4770073 18.7201527,1.82373021 18.3776023,2.15872818 C17.7325803,2.788315 17.0018653,3.50227944 16.0348857,3.54017608 C15.715364,3.55566974 15.3643994,3.28850885 15.3500065,2.94429843 C15.3345065,2.60113488 15.6168282,2.31115226 15.9801928,2.2964961 C16.421279,2.27911808 16.9354366,1.77787736 17.43188,1.29296779 C17.8514875,0.883432768 18.2848237,0.460288452 18.7801599,0.223905506 C20.2205541,-0.46325909 21.2769909,0.580678349 22.0480059,1.34342686 C22.9144568,2.19955606 23.2824714,2.44347646 23.7740433,2.21211849 C24.0986579,2.05613505 24.4117582,1.75652124 24.7144514,1.46674799 L24.8524015,1.33484254 C25.1083732,1.09217838 25.5253236,1.09175963 25.7828453,1.33442379 C26.0399241,1.57771607 26.0405884,1.97175744 25.7828453,2.21504972 L25.6506523,2.34130208 C25.291052,2.68530312 24.8840659,3.07515702 24.3670296,3.32284614 C24.036215,3.48029519 23.7262147,3.54666667 23.434593,3.54666667" id="Path"></path>
                            <path d="M8.08519541,3.54666667 L8.08519541,3.54666667 C7.10426588,3.54666667 6.3414437,2.79124623 5.74735026,2.20332479 C4.88289226,1.34698622 4.51266333,1.10348456 4.02308428,1.33547066 C3.72659113,1.4770073 3.37075506,1.82373021 3.02820473,2.15872818 C2.38318266,2.788315 1.65246766,3.50227944 0.685488139,3.54017608 C0.365966396,3.55566974 0.0150017657,3.28850885 0.000608894416,2.94429843 C-0.0148911208,2.60113488 0.267430585,2.31115226 0.630795228,2.2964961 C1.07188138,2.27911808 1.58603902,1.77787736 2.08248237,1.29296779 C2.50208992,0.883432768 2.93542606,0.460288452 3.43076227,0.223905506 C4.87115654,-0.46325909 5.92759329,0.580678349 6.69860833,1.34342686 C7.56505919,2.19955606 7.93307383,2.44347646 8.42464574,2.21211849 C8.74926035,2.05613505 9.06236066,1.75652124 9.36505381,1.46674799 L9.50300395,1.33484254 C9.75897563,1.09217838 10.175926,1.09175963 10.4334477,1.33442379 C10.6905265,1.57771607 10.6911908,1.97175744 10.4334477,2.21504972 L10.3012547,2.34130208 C9.94165438,2.68530312 9.53466826,3.07515702 9.01763204,3.32284614 C8.68681743,3.48029519 8.37681713,3.54666667 8.08519541,3.54666667" id="Path"></path>
                            <path d="M15.7598942,3.54666667 L15.7598942,3.54666667 C14.7789647,3.54666667 14.0161425,2.79124623 13.4220491,2.20332479 C12.5575911,1.34698622 12.1873621,1.10348456 11.6977831,1.33547066 C11.4012899,1.4770073 11.0454539,1.82373021 10.7029035,2.15872818 C10.0578815,2.788315 9.32716646,3.50227944 8.36018693,3.54017608 C8.04066519,3.55566974 7.68970056,3.28850885 7.67530769,2.94429843 C7.65980767,2.60113488 7.94212938,2.31115226 8.30549402,2.2964961 C8.74658017,2.27911808 9.26073782,1.77787736 9.75718116,1.29296779 C10.1767887,0.883432768 10.6101249,0.460288452 11.1054611,0.223905506 C12.5458553,-0.46325909 13.6022921,0.580678349 14.3733071,1.34342686 C15.239758,2.19955606 15.6077726,2.44347646 16.0993445,2.21211849 C16.4239591,2.05613505 16.7370595,1.75652124 17.0397526,1.46674799 L17.1777027,1.33484254 C17.4336744,1.09217838 17.8506248,1.09175963 18.1081465,1.33442379 C18.3652253,1.57771607 18.3658896,1.97175744 18.1081465,2.21504972 L17.9759535,2.34130208 C17.6163532,2.68530312 17.2093671,3.07515702 16.6923308,3.32284614 C16.3615162,3.48029519 16.0515159,3.54666667 15.7598942,3.54666667" id="Path"></path>
                        </g>
                        <path d="M30.4851954,23.1466667 L30.4851954,23.1466667 C29.5042659,23.1466667 28.7414437,22.3912462 28.1473503,21.8033248 C27.2828923,20.9469862 26.9126633,20.7034846 26.4230843,20.9354707 C26.1265911,21.0770073 25.7707551,21.4237302 25.4282047,21.7587282 C24.7831827,22.388315 24.0524677,23.1022794 23.0854881,23.1401761 C22.7659664,23.1556697 22.4150018,22.8885089 22.4006089,22.5442984 C22.3851089,22.2011349 22.6674306,21.9111523 23.0307952,21.8964961 C23.4718814,21.8791181 23.986039,21.3778774 24.4824824,20.8929678 C24.9020899,20.4834328 25.3354261,20.0602885 25.8307623,19.8239055 C27.2711565,19.1367409 28.3275933,20.1806783 29.0986083,20.9434269 C29.9650592,21.7995561 30.3330738,22.0434765 30.8246457,21.8121185 C31.1492603,21.6561351 31.4623607,21.3565212 31.7650538,21.066748 L31.9030039,20.9348425 C32.1589756,20.6921784 32.575926,20.6917596 32.8334477,20.9344238 C33.0905265,21.1777161 33.0911908,21.5717574 32.8334477,21.8150497 L32.7012547,21.9413021 C32.3416544,22.2853031 31.9346683,22.675157 31.417632,22.9228461 C31.0868174,23.0802952 30.7768171,23.1466667 30.4851954,23.1466667" id="Path" fill="#60B2E5"></path>
                        <path d="M78.0851954,23.1466667 L78.0851954,23.1466667 C77.1042659,23.1466667 76.3414437,22.3912462 75.7473503,21.8033248 C74.8828923,20.9469862 74.5126633,20.7034846 74.0230843,20.9354707 C73.7265911,21.0770073 73.3707551,21.4237302 73.0282047,21.7587282 C72.3831827,22.388315 71.6524677,23.1022794 70.6854881,23.1401761 C70.3659664,23.1556697 70.0150018,22.8885089 70.0006089,22.5442984 C69.9851089,22.2011349 70.2674306,21.9111523 70.6307952,21.8964961 C71.0718814,21.8791181 71.586039,21.3778774 72.0824824,20.8929678 C72.5020899,20.4834328 72.9354261,20.0602885 73.4307623,19.8239055 C74.8711565,19.1367409 75.9275933,20.1806783 76.6986083,20.9434269 C77.5650592,21.7995561 77.9330738,22.0434765 78.4246457,21.8121185 C78.7492603,21.6561351 79.0623607,21.3565212 79.3650538,21.066748 L79.5030039,20.9348425 C79.7589756,20.6921784 80.175926,20.6917596 80.4334477,20.9344238 C80.6905265,21.1777161 80.6911908,21.5717574 80.4334477,21.8150497 L80.3012547,21.9413021 C79.9416544,22.2853031 79.5346683,22.675157 79.017632,22.9228461 C78.6868174,23.0802952 78.3768171,23.1466667 78.0851954,23.1466667" id="Path" fill="#60B2E5"></path>
                        <g id="Garden-stuff" transform="translate(33.262651, 21.000000)">
                            <g id="Group-19" transform="translate(0.337349, -0.000000)">
                                <g id="Group-18" transform="translate(0.506024, 11.432340)">
                                    <g id="Rectangle">
                                        <mask id="mask-4" fill="white">
                                            <use xlink:href="#path-3"></use>
                                        </mask>
                                        <use id="Mask" fill="#FFFFFF" xlink:href="#path-3"></use>
                                        <mask id="mask-6" fill="white">
                                            <use xlink:href="#path-5"></use>
                                        </mask>
                                        <use id="Mask" fill="#FFFFFF" xlink:href="#path-5"></use>
                                        <polygon fill="#9B9B9B" opacity="0.4" style="mix-blend-mode: multiply;" mask="url(#mask-6)" transform="translate(2.808595, 5.442033) rotate(6.000000) translate(-2.808595, -5.442033) " points="0.708595161 -0.605822648 4.90497211 -0.605555656 4.90859516 11.4898892 0.712218212 11.4896222"></polygon>
                                    </g>
                                    <g id="Rectangle" transform="translate(0.000000, 13.767660)">
                                        <mask id="mask-8" fill="white">
                                            <use xlink:href="#path-7"></use>
                                        </mask>
                                        <use id="Mask" fill="#FFFFFF" xlink:href="#path-7"></use>
                                        <mask id="mask-10" fill="white">
                                            <use xlink:href="#path-9"></use>
                                        </mask>
                                        <use id="Mask" fill="#FFFFFF" xlink:href="#path-9"></use>
                                        <polygon fill="#9B9B9B" opacity="0.4" style="mix-blend-mode: multiply;" mask="url(#mask-10)" transform="translate(2.535176, 5.560442) rotate(6.000000) translate(-2.535176, -5.560442) " points="1.56796196 -0.487414251 3.50072094 -0.48714726 3.50238964 11.6082976 1.56963065 11.6080306"></polygon>
                                    </g>
                                    <g id="Rectangle" transform="translate(0.000000, 27.767660)">
                                        <mask id="mask-12" fill="white">
                                            <use xlink:href="#path-11"></use>
                                        </mask>
                                        <use id="Mask" fill="#FFFFFF" xlink:href="#path-11"></use>
                                        <mask id="mask-14" fill="white">
                                            <use xlink:href="#path-13"></use>
                                        </mask>
                                        <use id="Mask" fill="#FFFFFF" xlink:href="#path-13"></use>
                                    </g>
                                </g>
                                <path d="M2.73960464,27.5780142 L0.506024096,27.5780142 L0.506024096,7.85825135 C0.506024096,3.51825897 4.29176895,0 8.96172189,0 C13.6316748,0 17.4174197,3.51825897 17.4174197,7.85825135 L17.4174197,8.58121154 C17.1996888,8.94586666 16.7811726,9.19267139 16.3006294,9.19267139 C15.8200862,9.19267139 15.40157,8.94586666 15.1838391,8.58121154 L15.1838391,7.85825135 C15.1838391,4.66467205 12.3981024,2.07576451 8.96172189,2.07576451 C5.52534142,2.07576451 2.73960464,4.66467205 2.73960464,7.85825135 L2.73960464,27.5780142 Z M0.506024096,22.4 L2.7460241,22.4 L2.7460241,53.2 L0.506024096,53.2 L0.506024096,22.4 Z" id="Combined-Shape-Copy-9" fill="#FFFFFF" fill-rule="nonzero"></path>
                                <path d="M21.8335805,26.0953252 L19.6,26.0953252 L19.6,7.85825135 C19.6,3.51825897 23.3857449,0 28.0556978,0 C32.7256507,0 36.5113956,3.51825897 36.5113956,7.85825135 L36.5113956,8.58121154 C36.2936647,8.94586666 35.8751485,9.19267139 35.3946053,9.19267139 C34.9140621,9.19267139 34.4955459,8.94586666 34.277815,8.58121154 L34.277815,7.85825135 C34.277815,4.66467205 31.4920783,2.07576451 28.0556978,2.07576451 C24.6193173,2.07576451 21.8335805,4.66467205 21.8335805,7.85825135 L21.8335805,26.0953252 Z" id="Combined-Shape-Copy-10" fill="#FFFFFF" fill-rule="nonzero"></path>
                                <rect id="Rectangle" fill="#FFFFFF" x="19.6" y="23.8" width="2.24" height="30.8"></rect>
                            </g>
                        </g>
                    </g>
                </g>
            </g>
        </g>
    </g>
</svg>