<?xml version="1.0" encoding="UTF-8"?>
<svg width="140px" height="140px" viewBox="0 0 140 140" version="1.1" xmlns="http://www.w3.org/2000/svg" xmlns:xlink="http://www.w3.org/1999/xlink">
    <!-- Generator: Sketch 53.2 (72643) - https://sketchapp.com -->
    <title>Condo</title>
    <desc>Created with Sketch.</desc>
    <g id="Quote-Flow" stroke="none" stroke-width="1" fill="none" fill-rule="evenodd">
        <g id="QF.-05.-Type-of-house" transform="translate(-706.000000, -254.000000)">
            <g id="Condo" transform="translate(706.000000, 254.000000)">
                <g id="Rectangle-+-Rectangle-Copy-35-+-Rectangle-Copy-37-Mask" fill="#F3F3F3" stroke="#FFFFFF" stroke-width="8">
                    <circle id="Mask" cx="70" cy="70" r="66"></circle>
                </g>
                <g id="Condo-icon" transform="translate(33.000000, 26.000000)" fill-rule="nonzero">
                    <g id="Icon">
                        <rect id="Rectangle" fill="#70C7EC" x="15.4195011" y="18.1405896" width="42.6303855" height="50.7936508"></rect>
                        <path d="M13.2913832,13.6054422 L60.1780045,13.6054422 C61.0064317,13.6054422 61.6780045,14.2770151 61.6780045,15.1054422 L61.6780045,19.047619 L11.7913832,19.047619 L11.7913832,15.1054422 C11.7913832,14.2770151 12.4629561,13.6054422 13.2913832,13.6054422 Z" id="Rectangle" fill="#70C7EC"></path>
                        <polygon id="Triangle" fill="#4988AF" points="15.4195011 19.047619 57.9740056 19.047619 15.4195011 20.4859086"></polygon>
                        <path d="M12.9127204,67.7630275 L59.8433723,67.7630275 C60.6717994,67.7630275 61.3433723,68.4346004 61.3433723,69.2630275 L61.3433723,73.4693878 L11.4127204,73.4693878 L11.4127204,69.2630275 C11.4127204,68.4346004 12.0842933,67.7630275 12.9127204,67.7630275 Z" id="Rectangle-Copy-3" fill="#8DD3FF"></path>
                        <rect id="Rectangle" fill="#FFFFFF" x="11.4127204" y="73.4693878" width="49.9306519" height="1"></rect>
                        <path d="M3.63988508,74.1826828 L70.5427977,74.1826828 C71.3712248,74.1826828 72.0427977,74.8542557 72.0427977,75.6826828 L72.0427977,79.889043 L2.13988508,79.889043 L2.13988508,75.6826828 C2.13988508,74.8542557 2.81145796,74.1826828 3.63988508,74.1826828 Z" id="Rectangle-Copy-18" fill="#8DD3FF"></path>
                        <g id="Tower" transform="translate(14.512472, 0.000000)">
                            <rect id="Rectangle" fill="#FFAA4E" x="2.85318011" y="12.1260155" width="1.42659005" height="1.42659005"></rect>
                            <rect id="Rectangle-Copy-59" fill="#FFAA4E" x="1.89331396" y="4.27977016" width="7.84624529" height="7.84624529"></rect>
                            <polygon id="Triangle" fill="#FFAA4E" points="5.89569161 0 11.7913832 4.53514739 0 4.53514739"></polygon>
                            <polygon id="Triangle" fill="#D7A687" points="9.72257604 4.54049396 1.90180557 4.54049396 1.90180557 5.24529738"></polygon>
                            <polygon id="Triangle" fill="#D7A687" points="4.25429534 12.1281384 2.85318011 12.1281384 2.85318011 12.4805401"></polygon>
                            <rect id="Rectangle-Copy-20" fill="#FFAA4E" x="7.13295027" y="12.1260155" width="1.42659005" height="1.42659005"></rect>
                            <polygon id="Triangle" fill="#D7A687" points="8.5340655 12.1281384 7.13295027 12.1281384 7.13295027 12.4805401"></polygon>
                        </g>
                        <rect id="Rectangle-Copy-61" fill="#454545" x="42.6303855" y="9.97732426" width="3.62811791" height="3.62811791"></rect>
                        <g id="windows" transform="translate(20.861678, 23.582766)">
                            <rect id="Rectangle-Copy-63" fill="#FFFFFF" x="0" y="0" width="4.53514739" height="8.16326531"></rect>
                            <rect id="Rectangle-Copy-67" fill="#FFFFFF" x="0" y="14.5124717" width="4.53514739" height="8.16326531"></rect>
                            <rect id="Rectangle-Copy-71" fill="#FFFFFF" x="0" y="29.0249433" width="4.53514739" height="8.16326531"></rect>
                            <rect id="Rectangle-Copy-64" fill="#FFFFFF" x="9.07029478" y="0" width="4.53514739" height="8.16326531"></rect>
                            <rect id="Rectangle-Copy-68" fill="#FFC74E" x="9.07029478" y="14.5124717" width="4.53514739" height="8.16326531"></rect>
                            <rect id="Rectangle-Copy-72" fill="#FFFFFF" x="9.07029478" y="29.0249433" width="4.53514739" height="8.16326531"></rect>
                            <rect id="Rectangle-Copy-65" fill="#FFFFFF" x="18.1405896" y="0" width="4.53514739" height="8.16326531"></rect>
                            <rect id="Rectangle-Copy-69" fill="#FFFFFF" x="18.1405896" y="14.5124717" width="4.53514739" height="8.16326531"></rect>
                            <rect id="Rectangle-Copy-66" fill="#FFC74E" x="27.2108844" y="0" width="4.53514739" height="8.16326531"></rect>
                            <rect id="Rectangle-Copy-70" fill="#FFFFFF" x="27.2108844" y="14.5124717" width="4.53514739" height="8.16326531"></rect>
                        </g>
                        <rect id="Rectangle-Copy-73" fill="#ECF0F1" x="39.0022676" y="52.6077098" width="13.6054422" height="14.7062061"></rect>
                        <rect id="Rectangle-Copy-73" fill="#60B2E5" x="45.3514739" y="52.6077098" width="1" height="14.7062061"></rect>
                        <rect id="Rectangle-Copy-62" fill="#454545" x="47.1655329" y="9.97732426" width="3.62811791" height="3.62811791"></rect>
                        <g id="Group" transform="translate(58.956916, 48.072562)">
                            <path d="M7.25623583,11.7913832 L7.25623583,11.7913832 C7.75717438,11.7913832 8.16326531,12.1974741 8.16326531,12.6984127 L8.16326531,26.3038549 L6.34920635,26.3038549 L6.34920635,12.6984127 C6.34920635,12.1974741 6.75529728,11.7913832 7.25623583,11.7913832 Z" id="Rectangle" fill="#FFAA4E"></path>
                            <path d="M12.7135892,9.11158874 C13.8335529,10.0693323 14.5124717,11.3244087 14.5124717,12.6984127 C14.5124717,15.704044 11.2637442,18.1405896 7.25623583,18.1405896 C3.24872744,18.1405896 0,15.704044 0,12.6984127 C0,11.3244087 0.678918801,10.0693323 1.79888247,9.11158874 C1.23244233,8.56871564 0.907029478,7.93419123 0.907029478,7.25623583 C0.907029478,6.00980785 2.00696396,4.91018185 3.68242856,4.25701747 C3.64673047,4.05274949 3.62811791,3.8426073 3.62811791,3.62811791 C3.62811791,1.62436372 5.25248163,0 7.25623583,0 C9.25999002,0 10.8843537,1.62436372 10.8843537,3.62811791 C10.8843537,3.8426073 10.8657412,4.05274949 10.8300431,4.25701747 C12.5055077,4.91018185 13.6054422,6.00980785 13.6054422,7.25623583 C13.6054422,7.93419123 13.2800293,8.56871564 12.7135892,9.11158874 Z" id="Combined-Shape" fill="#78C97C"></path>
                        </g>
                        <g id="Group-Copy" transform="translate(0.000000, 48.072562)">
                            <path d="M7.25623583,11.7913832 L7.25623583,11.7913832 C7.75717438,11.7913832 8.16326531,12.1974741 8.16326531,12.6984127 L8.16326531,26.3038549 L6.34920635,26.3038549 L6.34920635,12.6984127 C6.34920635,12.1974741 6.75529728,11.7913832 7.25623583,11.7913832 Z" id="Rectangle" fill="#FFAA4E"></path>
                            <path d="M12.7135892,9.11158874 C13.8335529,10.0693323 14.5124717,11.3244087 14.5124717,12.6984127 C14.5124717,15.704044 11.2637442,18.1405896 7.25623583,18.1405896 C3.24872744,18.1405896 0,15.704044 0,12.6984127 C0,11.3244087 0.678918801,10.0693323 1.79888247,9.11158874 C1.23244233,8.56871564 0.907029478,7.93419123 0.907029478,7.25623583 C0.907029478,6.00980785 2.00696396,4.91018185 3.68242856,4.25701747 C3.64673047,4.05274949 3.62811791,3.8426073 3.62811791,3.62811791 C3.62811791,1.62436372 5.25248163,0 7.25623583,0 C9.25999002,0 10.8843537,1.62436372 10.8843537,3.62811791 C10.8843537,3.8426073 10.8657412,4.05274949 10.8300431,4.25701747 C12.5055077,4.91018185 13.6054422,6.00980785 13.6054422,7.25623583 C13.6054422,7.93419123 13.2800293,8.56871564 12.7135892,9.11158874 Z" id="Combined-Shape" fill="#78C97C"></path>
                        </g>
                    </g>
                </g>
            </g>
        </g>
    </g>
</svg>