<?xml version="1.0" encoding="UTF-8"?>
<svg width="140px" height="141px" viewBox="0 0 140 141" version="1.1" xmlns="http://www.w3.org/2000/svg" xmlns:xlink="http://www.w3.org/1999/xlink">
    <!-- Generator: Sketch 53.2 (72643) - https://sketchapp.com -->
    <title>Dog</title>
    <desc>Created with Sketch.</desc>
    <defs>
        <polygon id="path-1" points="0.435893793 0.000121765601 88.3371284 0.000121765601 88.3371284 88.8888889 0.435893793 88.8888889"></polygon>
        <path d="M78.5714286,39.2857143 C78.5714286,60.9821918 60.9821918,78.5714286 39.2857143,78.5714286 C17.5892368,78.5714286 0,60.9821918 0,39.2857143 C0,17.5881605 17.5892368,0 39.2857143,0 C60.9821918,0 78.5714286,17.5881605 78.5714286,39.2857143" id="path-3"></path>
    </defs>
    <g id="Quote-Flow" stroke="none" stroke-width="1" fill="none" fill-rule="evenodd">
        <g id="QF.-10.-QF.-Risk-factors" transform="translate(-883.000000, -291.000000)">
            <g id="Dog" transform="translate(883.000000, 291.000000)">
                <g>
                    <g id="Rectangle-+-Rectangle-Copy-35-+-Rectangle-Copy-37-Mask" transform="translate(0.000000, 0.109589)" fill="#F3F3F3" stroke="#FFFFFF" stroke-width="8">
                        <circle id="Mask" cx="70" cy="70" r="66"></circle>
                    </g>
                    <g id="Group-21" transform="translate(12.000000, 30.000000)">
                        <g id="Group-3" transform="translate(15.552173, 0.000000)">
                            <mask id="mask-2" fill="white">
                                <use xlink:href="#path-1"></use>
                            </mask>
                            <g id="Clip-2"></g>
                        </g>
                        <g id="Group-6" transform="translate(21.906779, 10.124049)">
                            <g id="Fill-4">
                                <mask id="mask-4" fill="white">
                                    <use xlink:href="#path-3"></use>
                                </mask>
                                <use id="Mask" fill="#F3F3F3" opacity="0" xlink:href="#path-3"></use>
                            </g>
                        </g>
                        <path d="M32.9337953,78.1105199 C32.2887528,76.3010542 31.7322999,75.2740601 31.1716944,74.860468 C31.0083574,75.985271 31.4319261,76.9326206 31.9731527,77.8380521 C32.165558,78.1608216 32.479774,78.2935623 32.9337953,78.1105199 M77.515087,55.8687633 C76.8354393,55.7625707 76.3980286,55.8897223 75.9481599,56.0266549 C73.8967588,56.6526322 71.8439736,56.7434548 69.7842672,56.0294494 C68.9800405,55.7499952 68.1245979,55.6116654 67.3369817,55.2958822 C65.7257598,54.6503431 64.1062327,54.0481194 62.6182056,53.0853998 C61.2229206,52.1813656 59.6809093,51.5008947 58.1804243,50.7659303 C57.2516185,50.3118173 56.206539,50.3677081 55.2126754,50.3006391 C54.5399487,50.2559265 53.9793431,50.6695186 53.5530061,51.2396051 C52.8069162,52.2316674 52.0857421,52.462217 50.9160836,52.1184884 C50.545115,52.0095013 50.1893727,51.8460206 49.823941,51.7146772 C49.4654302,51.5861283 49.1041511,51.4673602 48.677814,51.3220441 C48.5130929,51.6462109 48.3428349,51.9005142 48.2459401,52.1813656 C47.7586978,53.5842255 47.2936028,54.9968663 46.8132815,56.4025207 C46.6499446,56.8845791 46.4727655,57.3610485 46.2928181,57.8361205 C45.7848125,59.1733087 45.0041174,60.3176735 44.0088695,61.3432703 C43.4994798,61.8686441 43.0911374,62.503005 42.6814109,63.1192014 C41.882721,64.3208543 41.1172522,65.5476581 40.3310202,66.7576946 C39.1405985,68.5881194 38.3958929,70.6155593 38.0332295,72.7422054 C37.6913293,74.7584672 38.2477823,76.6238237 39.5724724,78.2181097 C39.7814883,78.4696185 40.0264937,78.6135374 40.3407097,78.70436 C40.8237994,78.8412925 41.3013523,79.0145541 41.7664473,79.2073774 C42.596974,79.5511061 43.179727,80.1756861 43.5243956,80.9972813 C43.6725062,81.3479963 43.7444851,81.749013 43.7610957,82.1318652 C43.7915483,82.7774043 43.534085,83.0945848 42.9125742,83.1840101 C41.410705,83.3963953 39.9060673,83.4369162 38.3931244,83.2412982 C37.7826873,83.1616538 37.158408,83.193791 36.5382814,83.1672429 C36.1922286,83.1504756 35.8143389,83.2035719 35.5098124,83.0778176 C34.9422858,82.8416788 34.3830645,82.852857 33.7975431,82.9003642 C33.2175586,82.9492686 32.6348056,82.9548577 32.0520527,82.971625 C30.9294574,83.0065567 29.8027094,83.0177349 28.6801141,83.0736257 C28.076598,83.1029684 27.6101188,82.8961724 27.2848292,82.4015385 C27.0079869,81.9823573 26.6757762,81.563176 26.5387393,81.0908985 C26.300655,80.2707005 26.0833338,79.4155708 26.0514969,78.5674274 C25.9490653,75.7505295 25.9269179,72.9294397 25.88816,70.1097473 C25.8812389,69.6807851 25.9393758,69.251823 25.9739811,68.8228609 C26.0445759,67.9132376 26.4709129,67.1824649 27.1297975,66.5872276 C27.4758503,66.2742389 27.8495873,65.9905929 28.2191718,65.706947 C30.3079465,64.0986883 32.086658,62.2067836 33.4584113,59.9348213 C33.8459905,59.2920767 34.0896117,58.6032222 34.2598697,57.869655 C34.3899855,57.3135413 34.3719908,56.8203047 34.1795854,56.2725745 C33.8985905,55.4635547 33.7587852,54.6056305 33.5110114,53.7812407 C32.9407163,51.8725688 32.3482739,49.9680887 31.7516789,48.0678004 C31.6007998,47.5899338 31.4485366,47.1050808 31.1536996,46.6789132 C30.9958995,46.7250231 30.8713205,46.729215 30.7854994,46.7892976 C29.5466303,47.6639891 28.3119139,48.5470643 27.0799659,49.4301394 C25.9089232,50.2685019 24.7849436,51.1837143 23.5613009,51.935446 C21.2593576,53.3466895 18.7940773,54.4030262 16.1114759,54.8110293 C14.572233,55.0443735 13.0094585,55.1030589 11.4702156,54.8222074 C10.097078,54.5706987 8.71148259,54.324779 7.37848715,53.9181732 C4.93397008,53.1720306 2.74276367,51.9256651 0.897610071,50.1203912 C0.570936216,49.8004162 0.283020276,49.3980022 0.105841235,48.9774237 C-0.262358958,48.0943485 0.375762429,47.2825342 1.31425766,47.3831377 C1.54265251,47.4082886 1.77243158,47.4753576 1.98698433,47.5633856 C2.66801626,47.8442371 3.35043241,48.1264858 4.01762223,48.4394744 C4.89659638,48.8516693 5.73265997,49.3756458 6.63793413,49.7054018 C8.84990371,50.5130243 11.125547,50.9126437 13.4953167,50.5772987 C15.3999914,50.3076255 17.1662449,49.6732645 18.8812826,48.7957785 C21.3590208,47.5284538 23.5972904,45.9565242 25.6293125,44.0408659 C26.648092,43.0795436 27.7111662,42.162934 28.6814983,41.1499126 C29.4621935,40.3325092 30.2318149,39.5039276 30.9986679,38.6711542 C31.6852367,37.9264089 32.3524265,37.163499 33.0389953,36.4187537 C34.4619645,34.8719749 36.1783864,33.7779119 38.0941348,32.9353576 C40.3185623,31.957268 42.6343477,31.3438662 45.0165753,30.9707949 C47.4763187,30.5837508 49.955441,30.5404355 52.4414844,30.7122998 C53.9101326,30.8156978 55.3843176,30.8855613 56.8557341,30.9470413 C59.1978196,31.0448502 61.5080681,30.7975333 63.7767904,30.2162686 C64.4896592,30.0332262 65.1720753,29.738402 65.8780231,29.5260169 C67.9584926,28.8986423 70.0403463,28.2740622 72.1277369,27.6718385 C74.1542221,27.086382 75.856802,25.9517981 77.3974291,24.5461437 C78.3497664,23.6770413 79.1899827,22.7143217 79.9070041,21.6244505 C80.5257465,20.68269 81.2842943,19.8345466 82.0289999,18.8844024 C81.9251841,18.4763994 81.7853788,18.0320672 81.7009419,17.5779542 C81.6040471,17.0427995 81.5292997,16.5006585 81.4905418,15.9585174 C81.4503996,15.3926227 81.6275787,14.8546734 81.963942,14.4159304 C82.4622581,13.768994 82.9716478,13.1150713 83.5668586,12.5617521 C84.2202064,11.9539393 84.9441488,11.4090037 85.6943913,10.9283425 C86.4211022,10.4630513 87.0689131,9.91951298 87.6959608,9.3396456 C88.6123087,8.49010495 89.7099882,8.04158102 90.921173,7.85015492 C92.4368843,7.61122162 93.9346009,7.7411678 95.4184754,8.11563638 C95.9444756,8.2483771 96.4718601,8.3825151 96.995092,8.52922853 C97.9806504,8.80588815 98.8651614,9.29213839 99.6458565,9.95165021 C100.283978,10.4909967 100.786447,11.147714 100.895799,12.0028437 C100.96501,12.5463821 101.279226,12.8551789 101.70141,13.0717559 C102.183116,13.3190728 102.686969,13.5398416 103.200511,13.7117059 C104.377091,14.1057363 105.568896,14.4592458 106.749629,14.8379062 C107.22995,14.9930033 107.711655,15.1453058 108.172598,15.3451155 C108.767809,15.6008161 109.095867,16.0772854 109.033577,16.7381945 C108.892388,18.2179043 108.807951,19.7073949 108.306866,21.1284193 C108.125535,21.642615 107.807166,22.0017136 107.321308,22.2224824 C106.652734,22.5270874 105.999386,22.8791997 105.310049,23.123722 C104.655317,23.355669 103.970132,23.5289306 103.284948,23.6337259 C101.712484,23.8740565 100.134483,24.078058 98.5523296,24.2513196 C97.6055292,24.3547176 96.8940446,24.7473507 96.3237495,25.5423978 C95.6288755,26.513501 95.154091,27.5754268 94.8301856,28.7058189 C94.4439907,30.0569798 94.0245746,31.3969625 93.771264,32.792836 C93.5733218,33.8994745 93.1068426,34.9558112 92.7829372,36.0414906 C92.2389421,37.8789017 91.6589576,39.7079292 91.2063205,41.5676966 C91.0249889,42.3068529 91.0332941,43.138229 91.1509521,43.8983443 C91.359968,45.2634779 91.0139152,46.4427744 90.3398043,47.5927283 C89.2919564,49.3784404 88.2191927,51.1487825 87.0052394,52.8241102 C86.6190444,53.3564704 86.4321759,53.9181732 86.4280233,54.5623151 C86.4169496,55.9330377 86.3781917,57.3051576 86.3851127,58.6758803 C86.4031075,61.6534644 86.412797,64.6310484 86.4820075,67.605838 C86.5152286,69.0114924 86.6384234,70.4213386 86.7906866,71.8200067 C86.976171,73.5176907 87.6502818,75.0449077 88.464198,76.5343984 C89.0054246,77.5250634 89.6200144,78.2125206 90.8187414,78.3466586 C91.4471733,78.4179194 92.0769894,78.7546617 92.6403634,79.0830203 C93.6702166,79.6852441 94.1090115,80.6661282 94.0993221,81.846822 C94.0937852,82.5971564 93.8349377,82.8821996 93.0736215,82.9897895 C91.7309366,83.1784211 90.3896359,83.4019844 89.0220352,83.3405045 C88.4406665,83.3153536 87.8565293,83.3139563 87.2751606,83.3419017 C86.1414916,83.3963953 85.0299699,83.255271 83.9226009,83.0358994 C83.6180745,82.9758168 83.3107796,82.940885 83.0048689,82.8849942 C81.6912524,82.6460609 80.5963413,82.1025225 79.9692936,80.8114443 C79.2688827,79.35968 78.6999719,77.868792 78.4881876,76.2633279 C78.4134402,75.6974332 78.2888611,75.2027993 77.7933135,74.845098 C77.4209607,74.5754247 77.3019185,74.1478599 77.3337554,73.6951441 C77.3600554,73.3458264 77.4043501,72.9951115 77.4763291,72.6527801 C77.9234294,70.4939967 78.0798452,68.3114597 77.9552662,66.109361 C77.8237662,63.7661378 77.6978029,61.4215174 77.5261607,59.0796916 C77.4486449,58.034533 77.2368606,56.9977581 77.515087,55.8687633" id="Fill-7" fill="#DB8BD1"></path>
                        <path d="M96.4383562,14.3547274 C96.4383562,14.9638763 95.9470252,15.4589372 95.3424658,15.4589372 C94.7379063,15.4589372 94.2465753,14.9638763 94.2465753,14.3547274 C94.2465753,13.7455784 94.7379063,13.2505176 95.3424658,13.2505176 C95.9470252,13.2505176 96.4383562,13.7455784 96.4383562,14.3547274" id="Fill-9" fill="#FFFFFF"></path>
                        <path d="M80.9150121,20.4278813 C80.9150121,20.4278813 80.4131517,21.1049976 80.1244102,21.5228832 C79.8604179,21.9067714 79.4520548,22.4960609 79.4520548,22.4960609 C79.4520548,22.4960609 81.8211106,26.987977 86.2044826,28.6269385 C90.5864796,30.2644834 94.648111,29.7304398 94.648111,29.7304398 C94.648111,29.7304398 94.7938568,29.1893134 94.9423524,28.6935169 C95.0908481,28.199137 95.3424658,27.5206041 95.3424658,27.5206041 C95.3424658,27.5206041 91.4719538,28.1651395 86.6967182,26.4241856 C82.8207064,24.8008062 80.9150121,20.4278813 80.9150121,20.4278813" id="Fill-11" fill="#FFC74E"></path>
                        <path d="M108.455898,15.0301652 C108.335898,14.9814411 108.206035,14.9509885 108.081104,14.9068323 C108.074528,14.9890542 108.048227,15.0667082 108.048227,15.1504528 C108.048227,16.1218894 108.556172,16.9974005 109.364939,17.6673568 C109.402748,17.2943129 109.438912,16.9212691 109.47672,16.5497479 C109.552337,15.8280222 109.162748,15.3088061 108.455898,15.0301652" id="Fill-15" fill="#C8BBED"></path>
                    </g>
                </g>
            </g>
        </g>
    </g>
</svg>