<?xml version="1.0" encoding="UTF-8"?>
<svg width="140px" height="141px" viewBox="0 0 140 141" version="1.1" xmlns="http://www.w3.org/2000/svg" xmlns:xlink="http://www.w3.org/1999/xlink">
    <!-- Generator: Sketch 53.2 (72643) - https://sketchapp.com -->
    <title>Natural gas</title>
    <desc>Created with Sketch.</desc>
    <g id="Quote-Flow" stroke="none" stroke-width="1" fill="none" fill-rule="evenodd">
        <g id="QF.-08.-Home-Heating" transform="translate(-884.000000, -254.000000)">
            <g id="Natural-gas" transform="translate(884.000000, 254.000000)">
                <g id="Rectangle-+-Rectangle-Copy-35-+-Rectangle-Copy-37-Mask" transform="translate(0.000000, 0.109589)" fill="#F3F3F3" stroke="#FFFFFF" stroke-width="8">
                    <circle id="Mask" cx="70" cy="70" r="66"></circle>
                </g>
                <g id="fireplace" transform="translate(35.000000, 43.000000)">
                    <rect id="Rectangle" fill="#70C7EC" fill-rule="nonzero" x="3" y="0" width="64" height="8"></rect>
                    <rect id="Rectangle" fill="#70C7EC" fill-rule="nonzero" x="6" y="8" width="57" height="46"></rect>
                    <path d="M35.5,15 L35.5,15 C45.1649831,15 53,22.8350169 53,32.5 L53,54 L18,54 L18,32.5 C18,22.8350169 25.8350169,15 35.5,15 Z" id="Rectangle-Copy-77" fill="#57AED2" fill-rule="nonzero"></path>
                    <g id="Fire]" transform="translate(26.000000, 29.000000)">
                        <g id="Oval" transform="translate(10.000000, 4.000000)">
                            <g id="Mask" fill="#FFB789">
                                <g id="Group-34">
                                    <path d="M3.94556996,14.8751016 C6.4277334,15.0525556 9.45384565,14.1613112 9.8439736,10.2321584 C9.99516197,8.7094727 9.1460044,6.8177678 7.29650089,4.55704369 C7.73907437,6.24527074 7.52710209,6.9357365 6.66058407,6.62844099 C5.55176646,6.23521815 7.85871684,5.2821818 5.69164142,1.89919855 C5.26161141,1.22788627 4.54348377,0.529572628 3.5372585,-0.195742374 C4.37637112,1.82096784 4.37637112,3.40522987 3.5372585,4.55704369 C2.27858956,6.28476443 1.17736357,6.08596465 0.263361642,8.7018727 C-0.783335025,11.6975581 1.46340652,14.6976477 3.94556996,14.8751016 Z" id="Oval"></path>
                                </g>
                            </g>
                            <ellipse fill="#9B9B9B" opacity="0.4" style="mix-blend-mode: multiply;" cx="-1.25886525" cy="10.6536017" rx="6.71394799" ry="7.82521186"></ellipse>
                        </g>
                        <g id="Group-35">
                            <g id="Group-34">
                                <path d="M5.58810551,22.9674447 C9.1035903,23.241437 13.3894691,21.8653385 13.9420068,15.7986505 C14.1561347,13.4475943 12.9534739,10.5267654 10.3340245,7.03616361 C10.9608408,9.64281882 10.6606247,10.7089113 9.43337639,10.2344411 C7.86295949,9.62729744 11.1302902,8.15579087 8.06106421,2.9323993 C7.45201327,1.89588015 6.43493004,0.817670381 5.00981452,-0.302230012 C6.19824862,2.81160957 6.19824862,5.25774078 5.00981452,7.03616361 C3.22716337,9.70379785 1.66749847,9.39684714 0.372998744,13.4358598 C-1.10943636,18.061256 2.07262071,22.6934523 5.58810551,22.9674447 Z" id="Oval" fill="#FFDA65"></path>
                                <path d="M6.10614705,22.9815152 C8.0647743,23.1370871 10.452621,22.355743 10.7604635,18.9110982 C10.8797633,17.5761764 10.2097095,15.9177397 8.75030195,13.9357878 C9.09952813,15.4158378 8.9322649,16.0211615 8.24851226,15.7517589 C7.3735657,15.4070248 9.1939357,14.5715084 7.48393833,11.6056843 C7.14460995,11.0171523 6.57794929,10.4049484 5.78395636,9.76907279 C6.44608393,11.5371004 6.44608393,12.9260054 5.78395636,13.9357878 C4.79076501,15.4504615 3.92180885,15.2761759 3.20058757,17.5695136 C2.37465944,20.1957979 4.14751981,22.8259433 6.10614705,22.9815152 Z" id="Oval" fill="#FFFFFF" opacity="0.6" style="mix-blend-mode: soft-light;"></path>
                                <path d="M6.58455822,22.9906196 C7.58898244,23.0695666 8.81351924,22.6730636 8.97138715,20.9250349 C9.03256655,20.2476119 8.68894919,19.4060171 7.94053509,18.4002505 C8.11962544,19.1513207 8.03384942,19.4584999 7.68320704,19.3217881 C7.2345165,19.1468484 8.16803957,18.722855 7.29111785,17.21781 C7.11710329,16.9191519 6.82650808,16.6084813 6.41933222,16.2857981 C6.75888482,17.1830061 6.75888482,17.8878236 6.41933222,18.4002505 C5.91000332,19.1688909 5.46438478,19.0804475 5.09452771,20.2442308 C4.67097483,21.5769721 5.58013399,22.9116727 6.58455822,22.9906196 Z" id="Oval" fill="#FFFFFF"></path>
                            </g>
                        </g>
                    </g>
                    <rect id="Rectangle" fill="#70C7EC" fill-rule="nonzero" x="0" y="53" width="70" height="5"></rect>
                    <polygon id="Rectangle-Copy-75" fill="#57AED2" fill-rule="nonzero" points="6 8 62.8426534 8 6 11.2178218"></polygon>
                </g>
            </g>
        </g>
    </g>
</svg>