<?xml version="1.0" encoding="UTF-8"?>
<svg width="140px" height="141px" viewBox="0 0 140 141" version="1.1" xmlns="http://www.w3.org/2000/svg" xmlns:xlink="http://www.w3.org/1999/xlink">
    <!-- Generator: Sketch 53.2 (72643) - https://sketchapp.com -->
    <title>House</title>
    <desc>Created with Sketch.</desc>
    <defs>
        <polygon id="path-1" points="0 57.9825322 79.6847148 57.9825322 79.6847148 0 0 0"></polygon>
    </defs>
    <g id="Quote-Flow" stroke="none" stroke-width="1" fill="none" fill-rule="evenodd">
        <g id="QF.-05.-Type-of-house" transform="translate(-520.000000, -254.000000)">
            <g id="House" transform="translate(520.000000, 254.000000)">
                <g id="Rectangle-+-Rectangle-Copy-35-+-Rectangle-Copy-37-Mask" transform="translate(0.000000, 0.109589)" fill="#F3F3F3" stroke="#FFFFFF" stroke-width="8">
                    <circle id="Mask" cx="70" cy="70" r="66"></circle>
                </g>
                <g id="Your-Home-Icon" transform="translate(27.000000, 41.000000)">
                    <g id="Home">
                        <g id="Group-61">
                            <path d="M53.3338116,36.2686076 C53.3338116,47.3892692 44.3724282,56.4039377 33.31798,56.4039377 C22.2631427,56.4039377 13.3021484,47.3892692 13.3021484,36.2686076 C13.3021484,25.147946 22.2631427,16.1328861 33.31798,16.1328861 C44.3724282,16.1328861 53.3338116,25.147946 53.3338116,36.2686076" id="Fill-1" fill="#78C97C"></path>
                            <path d="M28.0335654,18.0710262 C28.0335654,21.453533 25.3077951,24.19563 21.945428,24.19563 C18.5830609,24.19563 15.8572905,21.453533 15.8572905,18.0710262 C15.8572905,14.6885193 18.5830609,11.9464223 21.945428,11.9464223 C25.3077951,11.9464223 28.0335654,14.6885193 28.0335654,18.0710262" id="Fill-3" fill="#96D699"></path>
                            <path d="M21.6526168,26.9342432 C21.6526168,31.5736913 17.9139728,35.3347289 13.3021484,35.3347289 C8.68993483,35.3347289 4.95167992,31.5736913 4.95167992,26.9342432 C4.95167992,22.2947951 8.68993483,18.5337575 13.3021484,18.5337575 C17.9139728,18.5337575 21.6526168,22.2947951 21.6526168,26.9342432" id="Fill-5" fill="#78C97C"></path>
                            <path d="M29.1127448,41.7217207 C29.1127448,49.8090475 22.5957995,56.3650277 14.5566253,56.3650277 C6.51706201,56.3650277 0.000116735346,49.8090475 0.000116735346,41.7217207 C0.000116735346,33.6343938 6.51706201,27.0780222 14.5566253,27.0780222 C22.5957995,27.0780222 29.1127448,33.6343938 29.1127448,41.7217207" id="Fill-7" fill="#78C97C"></path>
                            <path d="M32.7223573,15.2123949 C32.7223573,17.0169727 31.268224,18.4798159 29.4740018,18.4798159 C27.6805577,18.4798159 26.2264244,17.0169727 26.2264244,15.2123949 C26.2264244,13.4078171 27.6805577,11.9449739 29.4740018,11.9449739 C31.268224,11.9449739 32.7223573,13.4078171 32.7223573,15.2123949" id="Fill-9" fill="#BCD156"></path>
                            <polygon id="Fill-11" fill="#78C97C" points="15.2401886 46.4867846 33.3178243 56.4041334 15.2401886 56.4041334"></polygon>
                            <mask id="mask-2" fill="white">
                                <use xlink:href="#path-1"></use>
                            </mask>
                            <g id="Clip-14"></g>
                            <polygon id="Fill-13" fill="#78C97C" mask="url(#mask-2)" points="17.5783976 57.9825322 76.6550435 57.9825322 76.6550435 54.9347139 17.5783976 54.9347139"></polygon>
                            <polygon id="Fill-15" fill="#70C7EC" mask="url(#mask-2)" points="23.6373512 54.9347139 76.6550435 54.9347139 76.6550435 25.9812226 23.6373512 25.9812226"></polygon>
                            <polygon id="Fill-16" fill="#7F8C8D" mask="url(#mask-2)" points="79.6847537 25.9812226 23.6373901 25.9812226 23.6373901 7.69470397 61.5075038 7.69470397"></polygon>
                            <polygon id="Fill-17" fill="#454545" mask="url(#mask-2)" points="23.6373512 27.5051317 79.6847148 27.5051317 79.6847148 25.9812226 23.6373512 25.9812226"></polygon>
                            <polygon id="Fill-19" fill="#454545" mask="url(#mask-2)" points="32.4669793 33.5506238 53.933053 11.8138778 75.3991268 33.5506238"></polygon>
                            <polygon id="Fill-20" fill="#DB8BD1" mask="url(#mask-2)" points="72.598568 33.6007293 53.9329752 15.3142107 35.2673824 33.6007293 35.7553362 33.6007293 35.7553362 54.9346747 72.1106142 54.9346747 72.1106142 33.6007293"></polygon>
                            <polygon id="Fill-21" fill="#FFFFFF" mask="url(#mask-2)" points="38.7853188 50.3629864 44.8442724 50.3629864 44.8442724 41.2199228 38.7853188 41.2199228"></polygon>
                            <polygon id="Fill-22" fill="#7F8C8D" mask="url(#mask-2)" points="49.3887795 54.9347139 58.4774044 54.9347139 58.4774044 41.2199228 49.3887795 41.2199228"></polygon>
                            <polygon id="Fill-23" fill="#FFFFFF" mask="url(#mask-2)" points="63.0219115 50.3629864 69.0812542 50.3629864 69.0812542 41.2199228 63.0219115 41.2199228"></polygon>
                            <polygon id="Fill-24" fill="#FFFFFF" mask="url(#mask-2)" points="26.6666334 48.8394686 32.7259761 48.8394686 32.7259761 36.6481953 26.6666334 36.6481953"></polygon>
                            <polygon id="Fill-29" fill="#DB8BD1" mask="url(#mask-2)" points="17.5783976 55.1016014 23.6369621 55.1016014 23.6369621 3.86920786 17.5783976 3.86920786"></polygon>
                            <polygon id="Fill-52" fill="#454545" mask="url(#mask-2)" points="34.2408118 56.8089695 73.6257612 56.8089695 73.6257612 54.9347139 34.2408118 54.9347139"></polygon>
                            <polygon id="Fill-53" fill="#757978" mask="url(#mask-2)" points="32.7259761 57.9825322 75.1402078 57.9825322 75.1402078 56.458623 32.7259761 56.458623"></polygon>
                            <path d="M53.5910574,29.02908 L49.0465504,29.02908 L49.0465504,24.9983344 C49.0465504,23.8580448 49.9656467,22.9334434 51.0991469,22.9334434 L51.53885,22.9334434 C52.6723502,22.9334434 53.5910574,23.8580448 53.5910574,24.9983344 L53.5910574,29.02908 Z" id="Fill-54" fill="#FFFFFF" mask="url(#mask-2)"></path>
                            <path d="M58.8623976,29.02908 L54.3178906,29.02908 L54.3178906,24.9983344 C54.3178906,23.8580448 55.2369869,22.9334434 56.3704871,22.9334434 L56.8101902,22.9334434 C57.9436904,22.9334434 58.8623976,23.8580448 58.8623976,24.9983344 L58.8623976,29.02908 Z" id="Fill-55" fill="#FFFFFF" mask="url(#mask-2)"></path>
                            <polygon id="Fill-56" fill="#70C7EC" mask="url(#mask-2)" points="16.4048182 4.74592211 24.8105414 4.74592211 24.8105414 0 16.4048182 0"></polygon>
                            <polygon id="Fill-57" fill="#70C7EC" mask="url(#mask-2)" points="64.7538749 38.1642755 67.918181 38.1642755 67.918181 36.486527 64.7538749 36.486527"></polygon>
                            <polygon id="Fill-58" fill="#70C7EC" mask="url(#mask-2)" points="67.3383955 34.4392512 70.5027016 34.4392512 70.5027016 32.7615027 67.3383955 32.7615027"></polygon>
                            <polygon id="Fill-59" fill="#70C7EC" mask="url(#mask-2)" points="35.6210127 37.3254013 38.7853188 37.3254013 38.7853188 35.6476528 35.6210127 35.6476528"></polygon>
                            <polygon id="Fill-60" fill="#70C7EC" mask="url(#mask-2)" points="39.5188059 33.5537946 42.6831121 33.5537946 42.6831121 31.8760461 39.5188059 31.8760461"></polygon>
                        </g>
                    </g>
                </g>
            </g>
        </g>
    </g>
</svg>