<?xml version="1.0" encoding="UTF-8"?>
<svg width="140px" height="141px" viewBox="0 0 140 141" version="1.1" xmlns="http://www.w3.org/2000/svg" xmlns:xlink="http://www.w3.org/1999/xlink">
    <!-- Generator: Sketch 53.2 (72643) - https://sketchapp.com -->
    <title>live-in-it</title>
    <desc>Created with Sketch.</desc>
    <g id="Quote-Flow" stroke="none" stroke-width="1" fill="none" fill-rule="evenodd">
        <g id="QF.-07.-House-usage" transform="translate(-613.000000, -290.000000)">
            <g id="Group" transform="translate(433.000000, 290.000000)">
                <g id="live-in-it" transform="translate(180.000000, 0.000000)">
                    <g id="Rectangle-+-Rectangle-Copy-35-+-Rectangle-Copy-37-Mask" transform="translate(0.000000, 0.109589)" fill="#F3F3F3" stroke="#FFFFFF" stroke-width="8">
                        <circle id="Mask" cx="70" cy="70" r="66"></circle>
                    </g>
                    <g id="Sofa" transform="translate(24.000000, 47.000000)" fill-rule="nonzero">
                        <path d="M22,0 L71,0 C76.5228475,-1.01453063e-15 81,4.4771525 81,10 L81,29 L12,29 L12,10 C12,4.4771525 16.4771525,1.01453063e-15 22,0 Z" id="Rectangle" fill="#70C7EC"></path>
                        <path d="M21,4 L33,4 L33,24 L15,24 L15,10 C15,6.6862915 17.6862915,4 21,4 Z" id="Rectangle" fill="#8ED5F3"></path>
                        <path d="M59,4 L71,4 C74.3137085,4 77,6.6862915 77,10 L77,24 L59,24 L59,4 Z" id="Rectangle-Copy-76" fill="#8ED5F3"></path>
                        <circle id="Oval" fill="#70C7EC" cx="83.5" cy="23.5" r="8.5"></circle>
                        <circle id="Oval-Copy-52" fill="#70C7EC" cx="8.5" cy="23.5" r="8.5"></circle>
                        <rect id="Rectangle-Copy-75" fill="#70C7EC" x="4" y="27" width="84" height="20" rx="2"></rect>
                        <polygon id="Rectangle-Copy-75" fill="#57AED2" points="4 33 88 33 4 38.2178218"></polygon>
                        <rect id="Rectangle" fill="#8ED5F3" x="35" y="4" width="22" height="20"></rect>
                    </g>
                </g>
            </g>
        </g>
    </g>
</svg>