<?xml version="1.0" encoding="UTF-8"?>
<svg width="140px" height="141px" viewBox="0 0 140 141" version="1.1" xmlns="http://www.w3.org/2000/svg" xmlns:xlink="http://www.w3.org/1999/xlink">
    <!-- Generator: Sketch 53.2 (72643) - https://sketchapp.com -->
    <title>moving-in</title>
    <desc>Created with Sketch.</desc>
    <g id="Quote-Flow" stroke="none" stroke-width="1" fill="none" fill-rule="evenodd">
        <g id="QF.-07.-House-usage" transform="translate(-433.000000, -290.000000)">
            <g id="Group" transform="translate(433.000000, 290.000000)">
                <g id="moving-in">
                    <g id="Rectangle-+-Rectangle-Copy-35-+-Rectangle-Copy-37-Mask" transform="translate(0.000000, 0.109589)" fill="#F3F3F3" stroke="#FFFFFF" stroke-width="8">
                        <circle id="Mask" cx="70" cy="70" r="66"></circle>
                    </g>
                    <g id="Group-2" transform="translate(30.000000, 65.000000)" fill-rule="nonzero">
                        <g id="box" transform="translate(41.000000, 0.000000)">
                            <g id="Box-Copy-2" transform="translate(0.909091, 0.363636)">
                                <rect id="Rectangle" fill="#FFAA4E" x="0" y="0" width="40" height="40"></rect>
                                <rect id="Rectangle" fill-opacity="0.5" fill="#FFFFFF" x="15.3846154" y="0" width="9.23076923" height="9.23076923"></rect>
                                <path d="M10.7692308,27.6923077 L10.7692308,35.3846154 L7.69230769,35.3846154 L7.69230769,27.6923077 L4.61538462,27.6923077 L9.23076923,21.5384615 L13.8461538,27.6923077 L10.7692308,27.6923077 Z" id="Combined-Shape" fill-opacity="0.5" fill="#FFFFFF"></path>
                                <path d="M32.3076923,27.6923077 L32.3076923,35.3846154 L29.2307692,35.3846154 L29.2307692,27.6923077 L26.1538462,27.6923077 L30.7692308,21.5384615 L35.3846154,27.6923077 L32.3076923,27.6923077 Z" id="Combined-Shape-Copy-15" fill-opacity="0.5" fill="#FFFFFF"></path>
                            </g>
                        </g>
                        <g id="box-copy">
                            <g id="Box-Copy-2" transform="translate(0.909091, 0.363636)">
                                <rect id="Rectangle" fill="#78C97C" x="0" y="0" width="40" height="40"></rect>
                                <rect id="Rectangle" fill-opacity="0.5" fill="#FFFFFF" x="15.3846154" y="0" width="9.23076923" height="9.23076923"></rect>
                                <path d="M10.7692308,27.6923077 L10.7692308,35.3846154 L7.69230769,35.3846154 L7.69230769,27.6923077 L4.61538462,27.6923077 L9.23076923,21.5384615 L13.8461538,27.6923077 L10.7692308,27.6923077 Z" id="Combined-Shape" fill-opacity="0.5" fill="#FFFFFF"></path>
                                <path d="M32.3076923,27.6923077 L32.3076923,35.3846154 L29.2307692,35.3846154 L29.2307692,27.6923077 L26.1538462,27.6923077 L30.7692308,21.5384615 L35.3846154,27.6923077 L32.3076923,27.6923077 Z" id="Combined-Shape-Copy-15" fill-opacity="0.5" fill="#FFFFFF"></path>
                            </g>
                        </g>
                    </g>
                    <g id="box-copy-2" transform="translate(54.000000, 30.000000)" fill-rule="nonzero">
                        <g id="Box-Copy-2">
                            <rect id="Rectangle" fill="#DB8BD1" x="0" y="0" width="34" height="34"></rect>
                            <rect id="Rectangle" fill-opacity="0.5" fill="#FFFFFF" x="13.0769231" y="0" width="7.84615385" height="7.84615385"></rect>
                            <path d="M9.15384615,23.5384615 L9.15384615,30.0769231 L6.53846154,30.0769231 L6.53846154,23.5384615 L3.92307692,23.5384615 L7.84615385,18.3076923 L11.7692308,23.5384615 L9.15384615,23.5384615 Z" id="Combined-Shape" fill-opacity="0.5" fill="#FFFFFF"></path>
                            <path d="M27.4615385,23.5384615 L27.4615385,30.0769231 L24.8461538,30.0769231 L24.8461538,23.5384615 L22.2307692,23.5384615 L26.1538462,18.3076923 L30.0769231,23.5384615 L27.4615385,23.5384615 Z" id="Combined-Shape-Copy-15" fill-opacity="0.5" fill="#FFFFFF"></path>
                        </g>
                    </g>
                </g>
            </g>
        </g>
    </g>
</svg>