<?xml version="1.0" encoding="UTF-8"?>
<svg width="140px" height="140px" viewBox="0 0 140 140" version="1.1" xmlns="http://www.w3.org/2000/svg" xmlns:xlink="http://www.w3.org/1999/xlink">
    <!-- Generator: Sketch 53.2 (72643) - https://sketchapp.com -->
    <title>no-frills</title>
    <desc>Created with Sketch.</desc>
    <defs>
        <polygon id="path-1" points="0.000251760362 0.0529238992 63.3897346 0.0529238992 63.3897346 54.7708223 0.000251760362 54.7708223"></polygon>
        <polygon id="path-3" points="7.60565217 10.9888137 3.13516199 13.6615572 4.31371957 8.61398068 0.372247113 5.21825051 5.57112594 4.77142018 7.60565217 0 9.64017841 4.77142018 14.8390572 5.21825051 10.8975848 8.61398068 12.0761424 13.6615572"></polygon>
        <polygon id="path-5" points="7.60565217 10.9888137 3.13516199 13.6615572 4.31371957 8.61398068 0.372247113 5.21825051 5.57112594 4.77142018 7.60565217 0 9.64017841 4.77142018 14.8390572 5.21825051 10.8975848 8.61398068 12.0761424 13.6615572"></polygon>
        <polygon id="path-7" points="7.60565217 10.9888137 3.13516199 13.6615572 4.31371957 8.61398068 0.372247113 5.21825051 5.57112594 4.77142018 7.60565217 0 9.64017841 4.77142018 14.8390572 5.21825051 10.8975848 8.61398068 12.0761424 13.6615572"></polygon>
    </defs>
    <g id="Quote-Flow" stroke="none" stroke-width="1" fill="none" fill-rule="evenodd">
        <g id="QF.-06.-Shiny-house" transform="translate(-433.000000, -324.000000)">
            <g id="no-frills" transform="translate(433.000000, 324.000000)">
                <g id="Group">
                    <g id="Rectangle-+-Rectangle-Copy-35-+-Rectangle-Copy-37-Mask" transform="translate(0.000000, 0.000000)" fill="#F3F3F3" stroke="#FFFFFF" stroke-width="7.84">
                        <circle id="Mask" cx="70" cy="70" r="66.08"></circle>
                    </g>
                    <g id="Group-25" transform="translate(29.400000, 29.400000)">
                        <g id="Group-20">
                            <g id="Group-24" transform="translate(0.000000, 28.000000)">
                                <path d="M32.7224551,15.7453969 C32.7224551,22.919111 27.0928681,28.7342914 20.148407,28.7342914 C13.2037016,28.7342914 7.57435897,22.919111 7.57435897,15.7453969 C7.57435897,8.57168292 13.2037016,2.75625 20.148407,2.75625 C27.0928681,2.75625 32.7224551,8.57168292 32.7224551,15.7453969" id="Fill-1" fill="#78C97C"></path>
                                <path d="M16.0491983,8.15085816 C16.0491983,11.1060394 13.7100498,13.5017163 10.8245992,13.5017163 C7.93914848,13.5017163 5.6,11.1060394 5.6,8.15085816 C5.6,5.19567694 7.93914848,2.8 10.8245992,2.8 C13.7100498,2.8 16.0491983,5.19567694 16.0491983,8.15085816" id="Fill-3" fill="#78C97C"></path>
                                <path d="M77.6916142,20.8189835 C77.6916142,25.358191 74.0893721,29.037967 69.6458071,29.037967 C65.2018671,29.037967 61.6,25.358191 61.6,20.8189835 C61.6,16.279776 65.2018671,12.6 69.6458071,12.6 C74.0893721,12.6 77.6916142,16.279776 77.6916142,20.8189835" id="Fill-5" fill="#78C97C"></path>
                                <path d="M16.8887022,19.9463445 C16.8887022,24.776719 13.1081178,28.6924553 8.44446398,28.6924553 C3.78058443,28.6924553 0,24.776719 0,19.9463445 C0,15.1159701 3.78058443,11.2 8.44446398,11.2 C13.1081178,11.2 16.8887022,15.1159701 16.8887022,19.9463445" id="Fill-7" fill="#78C97C"></path>
                                <path d="M19.7320604,2.10774722 C19.7320604,3.27184387 18.8185664,4.21549445 17.6914268,4.21549445 C16.564776,4.21549445 15.6512821,3.27184387 15.6512821,2.10774722 C15.6512821,0.943650578 16.564776,0 17.6914268,0 C18.8185664,0 19.7320604,0.943650578 19.7320604,2.10774722" id="Fill-9" fill="#BCD156"></path>
                                <polygon id="Fill-11" fill="#78C97C" points="8.47179487 22.96875 19.8282584 29.3662312 8.47179487 29.3662312"></polygon>
                            </g>
                            <polygon id="Fill-29" fill="#98D6EF" points="26.5288136 50.8525927 31.2586014 50.8525927 31.2586014 10.1769231 26.5288136 10.1769231"></polygon>
                            <polygon id="Fill-56" fill="#70C7EC" points="25.4135593 10.5526134 31.9757222 10.5526134 31.9757222 6.78461538 25.4135593 6.78461538"></polygon>
                            <g id="Group-7" transform="translate(12.030508, 0.000000)">
                                <g id="Group-3" transform="translate(0.000000, 0.584010)">
                                    <mask id="mask-2" fill="white">
                                        <use xlink:href="#path-1"></use>
                                    </mask>
                                    <g id="Clip-2"></g>
                                    <path d="M2.23050847,25.6181488 L30.7763572,25.6181488 L37.431013,17.3318329 L44.0862981,9.04615385 L50.7403245,17.3318329 L57.3956097,25.6181488 L57.3956097,54.9721252 L49.0818531,54.9721252 L49.0818531,43.3638952 C49.0818531,40.5839576 46.8330037,38.3096947 44.0862981,38.3096947 C41.3389632,38.3096947 39.0901137,40.5839576 39.0901137,43.3638952 L39.0901137,54.9721252 L2.23050847,54.9721252 L2.23050847,25.6181488 Z" id="Path" fill="#70C7EC" mask="url(#mask-2)"></path>
                                </g>
                            </g>
                            <rect id="Rectangle" fill="#98D6EF" x="14.2610169" y="28.2692308" width="27.8813559" height="27.1384615"></rect>
                            <g id="Group-22" transform="translate(35.000000, 30.800000)" fill="#70C7EC">
                                <polygon id="Fill-59" points="0 4.44919103 3.10102 4.44919103 3.10102 2.8 0 2.8"></polygon>
                                <polygon id="Fill-60" points="3.58842982 1.88479382 6.68944982 1.88479382 6.68944982 0.23560279 3.58842982 0.23560279"></polygon>
                            </g>
                            <g id="Group-22" transform="translate(15.400000, 30.800000)" fill="#70C7EC">
                                <polygon id="Fill-59" points="0 4.44919103 3.10102 4.44919103 3.10102 2.8 0 2.8"></polygon>
                                <polygon id="Fill-60" points="2.8 1.64919103 5.90102 1.64919103 5.90102 0 2.8 0"></polygon>
                            </g>
                            <rect id="Rectangle" fill="#70C7EC" x="49.9491525" y="38.4461538" width="15.6135593" height="16.9615385"></rect>
                            <rect id="Rectangle" fill="#7F8C8D" x="51.8" y="40.6" width="10.0372881" height="15.8307692"></rect>
                            <polygon id="Path" fill="#71747B" points="56.6160099 6.78461538 75.4199913 30.1628403 72.6732858 31.1550838 56.6160099 11.1713761 42.0038384 29.3686634 12.0305085 29.3686634 23.110482 15.5766061 49.5503553 15.5766061"></polygon>
                            <g id="Group-10" transform="translate(29.400000, 37.800000)" fill="#FFFFFF">
                                <rect id="Rectangle" x="0" y="0" width="6.69152542" height="9.39408284" rx="3.34576271"></rect>
                                <rect id="Rectangle" x="0" y="4.2" width="6.69152542" height="5.47988166"></rect>
                            </g>
                            <g id="Group-10" transform="translate(19.600000, 37.800000)" fill="#FFFFFF">
                                <g id="Group-23">
                                    <rect id="Rectangle" x="-1.15463195e-13" y="-4.30766534e-14" width="6.69152542" height="9.39408284" rx="3.34576271"></rect>
                                    <rect id="Rectangle" x="-1.15463195e-13" y="4.2" width="6.69152542" height="5.47988166"></rect>
                                </g>
                            </g>
                            <polygon id="Fill-52" fill="#454545" points="12.0305085 56.895747 72.9713154 56.895747 72.9713154 55.4076923 12.0305085 55.4076923"></polygon>
                            <polygon id="Fill-53" fill="#757978" points="9.8 57.7483606 75.4280518 57.7483606 75.4280518 56.5384615 9.8 56.5384615"></polygon>
                        </g>
                        <path d="M56.2536169,31.1918812 L51.8,31.1918812 L51.8,27.229744 C51.8,26.1088636 52.7007144,25.2 53.8115446,25.2 L54.2424537,25.2 C55.3532839,25.2 56.2536169,26.1088636 56.2536169,27.229744 L56.2536169,31.1918812 Z" id="Fill-54" fill="#FFFFFF"></path>
                        <path d="M61.8536169,31.1918812 L57.4,31.1918812 L57.4,27.229744 C57.4,26.1088636 58.3007144,25.2 59.4115446,25.2 L59.8424537,25.2 C60.9532839,25.2 61.8536169,26.1088636 61.8536169,27.229744 L61.8536169,31.1918812 Z" id="Fill-55" fill="#FFFFFF"></path>
                    </g>
                </g>
                <g id="Group-4" transform="translate(46.200000, 93.800000)">
                    <g id="7.-Star---Purple">
                        <mask id="mask-4" fill="white">
                            <use xlink:href="#path-3"></use>
                        </mask>
                        <use id="Mask" fill="#FFC74E" xlink:href="#path-3"></use>
                        <rect id="Rectangle" fill="#FFFFFF" opacity="0.6" style="mix-blend-mode: soft-light;" mask="url(#mask-4)" x="7.75478261" y="-2.36923077" width="7.45652174" height="21.0269231"></rect>
                    </g>
                    <g id="7.-Star---Purple" transform="translate(16.702609, 0.000000)">
                        <mask id="mask-6" fill="white">
                            <use xlink:href="#path-5"></use>
                        </mask>
                        <use id="Mask" fill="#FFC74E" xlink:href="#path-5"></use>
                        <rect id="Rectangle" fill="#FFFFFF" opacity="0.6" style="mix-blend-mode: soft-light;" mask="url(#mask-6)" x="7.75478261" y="-2.36923077" width="7.45652174" height="21.0269231"></rect>
                    </g>
                    <g id="7.-Star---Purple" transform="translate(33.405217, 0.000000)">
                        <mask id="mask-8" fill="white">
                            <use xlink:href="#path-7"></use>
                        </mask>
                        <use id="Mask" fill="#FFC74E" xlink:href="#path-7"></use>
                        <rect id="Rectangle" fill="#FFFFFF" opacity="0.6" style="mix-blend-mode: soft-light;" mask="url(#mask-8)" x="7.75478261" y="-2.36923077" width="7.45652174" height="21.0269231"></rect>
                    </g>
                </g>
            </g>
        </g>
    </g>
</svg>