<?xml version="1.0" encoding="UTF-8"?>
<svg width="140px" height="141px" viewBox="0 0 140 141" version="1.1" xmlns="http://www.w3.org/2000/svg" xmlns:xlink="http://www.w3.org/1999/xlink">
    <!-- Generator: Sketch 53.2 (72643) - https://sketchapp.com -->
    <title>Pool</title>
    <desc>Created with Sketch.</desc>
    <defs>
        <circle id="path-1" cx="62" cy="62" r="62"></circle>
        <path d="M110,10.221155 L110,60.9418283 L0,60.9418283 L0,10.2375186 L0,6.57404137 C2.05188089,6.52078536 3.10828653,5.87701746 5.26379099,3.81252239 C8.15672682,1.04173167 9.96589241,0.00180560709 13.4369903,3.40983424e-05 C16.9039334,-0.00173528994 18.7108805,1.0366574 21.5978819,3.80323762 C23.8492704,5.96071733 24.8981354,6.56372233 27.1403877,6.56372233 C29.3802359,6.56372233 30.4299086,5.95995105 32.6767211,3.80506866 L32.6823391,3.79968058 C35.5682507,1.03184829 37.3779339,-0.00725274333 40.8468266,3.80706702e-05 C44.3328892,0.00736497178 46.1517673,1.05281558 49.0564961,3.83259005 L49.062201,3.83804952 C51.333664,6.01179973 52.3964175,6.62157485 54.6660053,6.62157485 C56.9355931,6.62157485 57.9983465,6.01179973 60.2698095,3.83804952 L60.2755144,3.83259005 C63.1802432,1.05281558 64.9991214,0.00736497178 68.4851839,3.80706702e-05 C71.9540766,-0.00725274333 73.7637599,1.03184829 76.6496715,3.79968058 L76.6552894,3.80506866 C78.9021019,5.95995105 79.9517747,6.56372233 82.1916228,6.56372233 C84.4346481,6.56372233 85.4832516,5.96096408 87.7343066,3.80437831 C90.6216598,1.03819772 92.4277276,3.38494437e-05 95.8940448,3.38494437e-05 C99.3603621,3.38494437e-05 101.16643,1.03819772 104.053783,3.80437831 C106.304838,5.96096408 107.353442,6.56372233 109.596467,6.56372233 C109.735365,6.56372233 109.869686,6.56140052 110,6.55653097 L110,10.221155 Z M50.9063145,9.663857 C50.4214477,9.47250857 49.9543158,9.23345015 49.4863839,8.94202272 C49.7225269,9.17346289 49.9651095,9.41407431 50.2141317,9.663857 L50.9063145,9.663857 Z M44.7347166,4.94955545 C43.9491753,4.34916548 43.264788,4.00036638 42.4735947,3.82080808 C43.3390347,4.18914784 44.092742,4.56539696 44.7347166,4.94955545 Z" id="path-3"></path>
        <path d="M110,10.2211554 L110,27.4238227 L0,27.4238227 L0,10.2375186 L0,6.57404137 C0.453258833,6.56227716 0.857942005,6.52169807 1.23662713,6.44335511 L2.34147908,6.07472133 C3.21561789,5.66163023 4.07158847,4.95438791 5.26379099,3.81252239 L5.26516366,3.81120768 C8.15672682,1.04173167 9.96589241,0.00180560709 13.4369903,3.40983424e-05 C16.9039334,-0.00173528994 18.7108805,1.0366574 21.5978819,3.80323762 L21.5992495,3.80454814 C23.8492704,5.96071733 24.8981354,6.56372233 27.1403877,6.56372233 C29.3802359,6.56372233 30.4299086,5.95995105 32.6767211,3.80506866 L32.6823391,3.79968058 C35.5682507,1.03184829 37.3779339,-0.00725274333 40.8468266,3.80706702e-05 C44.3328892,0.00736497178 46.1517673,1.05281558 49.0564961,3.83259005 L49.062201,3.83804952 C51.333664,6.01179973 52.3964175,6.62157485 54.6660053,6.62157485 C56.9355931,6.62157485 57.9983465,6.01179973 60.2698095,3.83804952 L60.2755144,3.83259005 C63.1802432,1.05281558 64.9991214,0.00736497178 68.4851839,3.80706702e-05 C71.9540766,-0.00725274333 73.7637599,1.03184829 76.6496715,3.79968058 L76.6552894,3.80506866 C78.9021019,5.95995105 79.9517747,6.56372233 82.1916228,6.56372233 C84.4346481,6.56372233 85.4832516,5.96096408 87.7343066,3.80437831 C90.6216598,1.03819772 92.4277276,3.38494437e-05 95.8940448,3.38494437e-05 C99.3603621,3.38494437e-05 101.16643,1.03819772 104.053783,3.80437831 C106.304838,5.96096408 107.353442,6.56372233 109.596467,6.56372233 C109.735365,6.56372233 109.869686,6.56140052 110,6.55653097 L110,10.2211554 Z" id="path-5"></path>
        <path d="M110,10.221155 L110,20.567867 L0,20.567867 L0,10.2375186 L0,6.57404137 C0.453258833,6.56227716 0.857942005,6.52169807 1.23662713,6.44335511 L2.34147908,6.07472133 C3.21561789,5.66163023 4.07158847,4.95438791 5.26379099,3.81252239 C8.15672682,1.04173167 9.96589241,0.00180560709 13.4369903,3.40983424e-05 C16.9039334,-0.00173528994 18.7108805,1.0366574 21.5978819,3.80323762 C23.8492704,5.96071733 24.8981354,6.56372233 27.1403877,6.56372233 C29.3802359,6.56372233 30.4299086,5.95995105 32.6767211,3.80506866 L32.6823391,3.79968058 C35.5682507,1.03184829 37.3779339,-0.00725274333 40.8468266,3.80706702e-05 C44.3328892,0.00736497178 46.1517673,1.05281558 49.0564961,3.83259005 L49.062201,3.83804952 C51.333664,6.01179973 52.3964175,6.62157485 54.6660053,6.62157485 C56.9355931,6.62157485 57.9983465,6.01179973 60.2698095,3.83804952 L60.2755144,3.83259005 C63.1802432,1.05281558 64.9991214,0.00736497178 68.4851839,3.80706702e-05 C71.9540766,-0.00725274333 73.7637599,1.03184829 76.6496715,3.79968058 L76.6552894,3.80506866 C78.9021019,5.95995105 79.9517747,6.56372233 82.1916228,6.56372233 C84.4346481,6.56372233 85.4832516,5.96096408 87.7343066,3.80437831 C90.6216598,1.03819772 92.4277276,3.38494437e-05 95.8940448,3.38494437e-05 C99.3603621,3.38494437e-05 101.16643,1.03819772 104.053783,3.80437831 C106.304838,5.96096408 107.353442,6.56372233 109.596467,6.56372233 C109.735365,6.56372233 109.869686,6.56140052 110,6.55653097 L110,10.221155 Z" id="path-7"></path>
        <path d="M0,0 L50.4166667,0 L50.4166667,4.57063712 L0,4.57063712 L0,0 Z M0,11.4265928 L50.4166667,11.4265928 L50.4166667,15.9972299 L0,15.9972299 L0,11.4265928 Z M0,21.7105263 L50.4166667,21.7105263 L50.4166667,26.2811634 L0,26.2811634 L0,21.7105263 Z" id="path-9"></path>
        <path d="M105.657895,64.9698028 L105.657895,69.2201478 C104.524095,68.6570108 103.477682,67.7350213 102.000786,66.3201059 C99.7497311,64.1635201 98.1370701,63.4047748 95.8940448,63.4047748 C93.6510196,63.4047748 95.4454995,62.8675094 93.1944444,65.0240952 C90.3070913,67.7902758 85.65794,69.9684633 82.1916228,69.9684633 C78.7277477,69.9684633 76.4786428,69.6516738 73.5954586,66.8864573 L71.9667783,66.1580168 C69.7189581,64.002168 70.7266749,65.9636833 68.4851839,65.9683944 C66.2172857,65.973161 64.5072595,66.7700647 62.2368421,68.9428143 L62.8853965,66.1991951 C59.9778996,68.9816185 57.0642451,70.6346186 53.5731132,70.6346186 C50.0819813,70.6346186 47.6293272,68.7508179 44.7218303,65.9683944 C42.445708,63.7901853 43.1066912,63.4095372 40.8387929,63.4047706 C38.597302,63.4000595 38.7030698,64.3687692 36.4552497,66.524618 L35.2952405,66.1634049 C32.4120563,68.9286213 30.6042628,69.9684633 27.1403877,69.9684633 C23.6746652,69.9684633 20.254758,69.2905615 17.3684211,66.524618 C15.1167859,64.3669019 15.6796431,64.8832045 13.4369903,64.884349 C11.1879396,64.8854969 10.1376093,64.0107838 7.88186195,66.1712893 C7.12686641,66.8944075 6.44566674,67.4996351 5.78947368,67.9992628 L5.78947368,63.05985 C8.38719416,60.6592852 10.1808666,59.7440782 13.4369903,59.7424164 C16.9039334,59.740647 18.7108806,60.7790397 21.5978819,63.5456199 C23.8492704,65.7030996 24.8981354,66.3061046 27.1403877,66.3061046 C29.3802359,66.3061046 30.4299086,65.7023333 32.6767211,63.5474509 C35.5682507,60.7742306 37.3779339,59.7351295 40.8468266,59.7424203 C44.3328892,59.7497472 46.1517673,60.7951978 49.0564961,63.5749723 C51.333664,65.754182 52.3964175,66.3639571 54.6660053,66.3639571 C56.9355931,66.3639571 57.9983465,65.754182 60.2698095,63.5804318 L60.2755144,63.5749723 C63.1802432,60.7951978 64.9991214,59.7497472 68.4851839,59.7424203 C71.9540766,59.7351295 73.7637599,60.7742306 76.6496715,63.5420629 L76.6552894,63.5474509 C78.9021019,65.7023333 79.9517747,66.3061046 82.1916228,66.3061046 C84.4346481,66.3061046 85.4832516,65.7033464 87.7343066,63.5467606 C90.6216598,60.78058 92.4277276,59.7424161 95.8940448,59.7424161 C99.3603621,59.7424161 101.16643,60.78058 104.053783,63.5467606 C104.660113,64.1276452 105.179204,64.5957974 105.657895,64.9698028 Z" id="path-11"></path>
    </defs>
    <g id="Quote-Flow" stroke="none" stroke-width="1" fill="none" fill-rule="evenodd">
        <g id="QF.-10.-QF.-Risk-factors" transform="translate(-343.000000, -291.000000)">
            <g id="Pool" transform="translate(343.000000, 291.000000)">
                <g id="Rectangle-+-Rectangle-Copy-35-+-Rectangle-Copy-37-Mask" transform="translate(0.000000, 0.109589)" fill="#F3F3F3" stroke="#FFFFFF" stroke-width="8">
                    <circle id="Mask" cx="70" cy="70" r="66"></circle>
                </g>
                <g id="Garden-stuff" transform="translate(8.000000, 8.000000)">
                    <mask id="mask-2" fill="white">
                        <use xlink:href="#path-1"></use>
                    </mask>
                    <use id="Mask" fill="#F3F3F3" xlink:href="#path-1"></use>
                    <g id="Group-19" mask="url(#mask-2)">
                        <g transform="translate(6.000000, 26.000000)">
                            <g id="Rectangle-+-Rectangle-Copy-35-+-Rectangle-Copy-37-Mask" stroke="none" stroke-width="1" fill="none" fill-rule="evenodd" transform="translate(0.000000, 59.026316)">
                                <g id="Rectangle" transform="translate(0.000000, 0.716066)">
                                    <mask id="mask-4" fill="white">
                                        <use xlink:href="#path-3"></use>
                                    </mask>
                                    <use id="Mask" fill="#8DD3FF" fill-rule="nonzero" xlink:href="#path-3"></use>
                                    <rect fill="#8DD3FF" style="mix-blend-mode: soft-light;" mask="url(#mask-4)" x="-9.16666667" y="-3.04709141" width="123.75" height="65.1315789"></rect>
                                </g>
                                <g id="Rectangle-Copy-35" transform="translate(0.000000, 7.572022)">
                                    <mask id="mask-6" fill="white">
                                        <use xlink:href="#path-5"></use>
                                    </mask>
                                    <use id="Mask" fill="#60B2E5" fill-rule="nonzero" xlink:href="#path-5"></use>
                                </g>
                                <g id="Rectangle-Copy-37" transform="translate(0.000000, 15.496917)">
                                    <mask id="mask-8" fill="white">
                                        <use xlink:href="#path-7"></use>
                                    </mask>
                                    <use id="Mask" fill="#8DD3FF" fill-rule="nonzero" xlink:href="#path-7"></use>
                                    <rect id="Rectangle" fill="#8DD3FF" style="mix-blend-mode: soft-light;" mask="url(#mask-8)" x="-8.02083333" y="-2.28531856" width="123.75" height="53.3240997"></rect>
                                </g>
                            </g>
                            <g id="Group-18" stroke="none" stroke-width="1" fill="none" fill-rule="evenodd" transform="translate(18.000000, 27.000000)">
                                <g id="Rectangle">
                                    <mask id="mask-10" fill="white">
                                        <use xlink:href="#path-9"></use>
                                    </mask>
                                    <use id="Mask" fill="#9B9B9B" xlink:href="#path-9"></use>
                                    <polygon fill="#9B9B9B" opacity="0.4" style="mix-blend-mode: multiply;" mask="url(#mask-10)" transform="translate(6.011988, 13.132213) rotate(6.000000) translate(-6.011988, -13.132213) " points="3.72451553 -1.15080195 8.30771015 -1.15212179 8.29946111 27.4152272 3.7162665 27.4165471"></polygon>
                                </g>
                            </g>
                            <path d="M23.2967767,65.1315789 L18,65.1315789 L18,18.5589983 C18,8.30914657 26.9776235,0 38.0520833,0 C49.1265432,0 58.1041667,8.30914657 58.1041667,18.5589983 L58.1041667,20.2664287 C57.5878335,21.1276424 56.5953521,21.7105263 55.4557783,21.7105263 C54.3162045,21.7105263 53.3237231,21.1276424 52.8073899,20.2664287 L52.8073899,18.5589983 C52.8073899,11.0166546 46.2012141,4.90237691 38.0520833,4.90237691 C29.9029525,4.90237691 23.2967767,11.0166546 23.2967767,18.5589983 L23.2967767,65.1315789 Z" id="Combined-Shape-Copy-9" stroke="none" fill="#9B9B9B" fill-rule="nonzero"></path>
                            <path d="M69.2967767,61.6298812 L64,61.6298812 L64,18.5589983 C64,8.30914657 72.9776235,0 84.0520833,0 C95.1265432,0 104.104167,8.30914657 104.104167,18.5589983 L104.104167,20.2664287 C103.587833,21.1276424 102.595352,21.7105263 101.455778,21.7105263 C100.316205,21.7105263 99.3237231,21.1276424 98.8073899,20.2664287 L98.8073899,18.5589983 C98.8073899,11.0166546 92.2012141,4.90237691 84.0520833,4.90237691 C75.9029525,4.90237691 69.2967767,11.0166546 69.2967767,18.5589983 L69.2967767,61.6298812 Z" id="Combined-Shape-Copy-10" stroke="none" fill="#9B9B9B" fill-rule="nonzero"></path>
                            <mask id="mask-12" fill="white">
                                <use xlink:href="#path-11"></use>
                            </mask>
                            <use id="Mask" stroke="none" fill="#93EAFF" fill-rule="nonzero" xlink:href="#path-11"></use>
                        </g>
                    </g>
                </g>
            </g>
        </g>
    </g>
</svg>