<?xml version="1.0" encoding="UTF-8"?>
<svg width="140px" height="141px" viewBox="0 0 140 141" version="1.1" xmlns="http://www.w3.org/2000/svg" xmlns:xlink="http://www.w3.org/1999/xlink">
    <!-- Generator: Sketch 53.2 (72643) - https://sketchapp.com -->
    <title>Rent</title>
    <desc>Created with Sketch.</desc>
    <defs>
        <path d="M11.1698514,0 L59.6023921,-2.22044605e-16 C60.6058245,-4.06372138e-16 61.4192671,0.813442645 61.4192671,1.816875 L61.4192671,27.5089677 C61.4192671,28.5124001 60.6058245,29.3258427 59.6023921,29.3258427 L11.1454901,29.3258427 C10.5696066,29.3258427 10.027822,29.0528248 9.68518621,28.5899613 L0.401221952,16.048343 C-0.0657226053,15.4175521 -0.0748619587,14.558239 0.378560747,13.9176594 L9.68688624,0.767184953 C10.027473,0.286015914 10.5803405,1.21851441e-15 11.1698514,1.11022302e-15 Z M8.63015145,17.3782772 C10.1329671,17.3782772 11.3512399,16.1625709 11.3512399,14.6629213 C11.3512399,13.1632717 10.1329671,11.9475655 8.63015145,11.9475655 C7.12733581,11.9475655 5.90906302,13.1632717 5.90906302,14.6629213 C5.90906302,16.1625709 7.12733581,17.3782772 8.63015145,17.3782772 Z" id="path-1"></path>
        <path d="M36.2353241,27.5619258 L69.9813275,27.5619258 L75.9677221,33.6301096 L69.9813275,39.5094913 L67.8881826,39.5094913 L64.8112595,35.7079932 L61.7343364,39.5094913 L61.3575703,39.5094913 L58.2806473,35.7079932 L55.2037242,39.5094913 L54.8269581,39.5094913 L51.750035,35.7079932 L48.6731119,39.5094913 L36.2353241,39.5094913 C33.8200087,45.8584326 27.6668492,50.3709146 20.457518,50.3709146 C11.140061,50.3709146 3.58676972,42.8335361 3.58676972,33.5357086 C3.58676972,24.237881 11.140061,16.7005026 20.457518,16.7005026 C27.6668492,16.7005026 33.8200087,21.2129846 36.2353241,27.5619258 Z M12.8384704,37.3372067 C14.9424123,37.3372067 16.6479942,35.635218 16.6479942,33.5357086 C16.6479942,31.4361991 14.9424123,29.7342104 12.8384704,29.7342104 C10.7345285,29.7342104 9.02894659,31.4361991 9.02894659,33.5357086 C9.02894659,35.635218 10.7345285,37.3372067 12.8384704,37.3372067 Z" id="path-3"></path>
        <path d="M19.476847,47.9858057 C17.5256535,46.0691499 14.8548496,44.8876404 11.9091243,44.8876404 C5.93302281,44.8876404 1.08843537,49.7504653 1.08843537,55.7490637 C1.08843537,61.7476621 5.93302281,66.6104869 11.9091243,66.6104869 C14.7133747,66.6104869 17.2684769,65.5397413 19.1907857,63.7833399 C19.0805442,63.4210631 18.8653886,63.1047488 18.5808637,62.8700754 C16.8380039,64.515921 14.4908874,65.5243446 11.9091243,65.5243446 C6.53063295,65.5243446 2.17050426,61.1478022 2.17050426,55.7490637 C2.17050426,50.3503251 6.53063295,45.9737828 11.9091243,45.9737828 C14.6055521,45.9737828 17.0460276,47.0737704 18.8094743,48.851084 C19.092109,48.6182406 19.3215821,48.3227726 19.476847,47.9858057 Z" id="path-5"></path>
    </defs>
    <g id="Quote-Flow" stroke="none" stroke-width="1" fill="none" fill-rule="evenodd">
        <g id="QF.-02.-Own-or-rent" transform="translate(-709.000000, -290.000000)">
            <g id="Group" transform="translate(518.000000, 290.000000)">
                <g id="Rent" transform="translate(191.000000, 0.000000)">
                    <g id="Rectangle-+-Rectangle-Copy-35-+-Rectangle-Copy-37-Mask" transform="translate(0.000000, 0.109589)" fill="#F3F3F3" stroke="#FFFFFF" stroke-width="8">
                        <circle id="Mask" cx="70" cy="70" r="66"></circle>
                    </g>
                    <g id="Keys-Copy" transform="translate(30.000000, 27.000000)">
                        <g id="Rectangle" transform="translate(8.707483, 49.775281)">
                            <mask id="mask-2" fill="white">
                                <use xlink:href="#path-1"></use>
                            </mask>
                            <use id="Mask" fill="#DB8BD1" xlink:href="#path-1"></use>
                            <polygon fill="#9B9B9B" opacity="0.4" style="mix-blend-mode: multiply;" mask="url(#mask-2)" transform="translate(3.443479, 16.652635) rotate(-19.000000) translate(-3.443479, -16.652635) " points="-0.366076516 15.2921832 6.58860905 17.0008094 7.25303442 18.0130877 -0.364311836 18.0081466"></polygon>
                            <polygon fill="#9B9B9B" opacity="0.4" style="mix-blend-mode: multiply;" mask="url(#mask-2)" transform="translate(27.274105, -2.541327) rotate(-23.000000) translate(-27.274105, 2.541327) " points="13.4082265 -10.4289125 41.1544015 -10.4078816 41.1663602 5.3462583 13.38185 4.91812543"></polygon>
                        </g>
                        <path d="M21.767561,75.2996255 L66.3957043,75.2996255 C66.6956343,75.2996255 66.9387755,75.5427667 66.9387755,75.8426966 L66.9387755,75.8426966 C66.9387755,76.1426265 66.6956343,76.3857678 66.3957043,76.3857678 L21.767561,76.3857678 C21.467631,76.3857678 21.2244898,76.1426265 21.2244898,75.8426966 L21.2244898,75.8426966 C21.2244898,75.5427667 21.467631,75.2996255 21.767561,75.2996255 Z" id="Rectangle" fill="#FFFFFF"></path>
                        <path d="M22.3117786,52.4906367 L66.939922,52.4906367 C67.239852,52.4906367 67.4829932,52.7337779 67.4829932,53.0337079 L67.4829932,53.0337079 C67.4829932,53.3336378 67.239852,53.576779 66.939922,53.576779 L22.3117786,53.576779 C22.0118487,53.576779 21.7687075,53.3336378 21.7687075,53.0337079 L21.7687075,53.0337079 C21.7687075,52.7337779 22.0118487,52.4906367 22.3117786,52.4906367 Z" id="Rectangle-Copy-34" fill="#FFFFFF"></path>
                        <mask id="mask-4" fill="white">
                            <use xlink:href="#path-3"></use>
                        </mask>
                        <use id="Combined-Shape" fill="#7F8C8D" transform="translate(39.777246, 33.535709) rotate(-30.000000) translate(-39.777246, -33.535709) " xlink:href="#path-3"></use>
                        <rect id="Rectangle" stroke="#979797" stroke-width="0.605625" fill="#FFFFFF" opacity="0.6" style="mix-blend-mode: soft-light;" mask="url(#mask-4)" x="5.74498937" y="10.4338986" width="66.8773682" height="52.0722776"></rect>
                        <mask id="mask-6" fill="white">
                            <use xlink:href="#path-5"></use>
                        </mask>
                        <use id="Combined-Shape" fill="#C87CCB" fill-rule="nonzero" xlink:href="#path-5"></use>
                        <path d="" id="Path-4" stroke="#979797" stroke-width="0.605625" mask="url(#mask-6)"></path>
                    </g>
                </g>
            </g>
        </g>
    </g>
</svg>