<?xml version="1.0" encoding="UTF-8"?>
<svg width="140px" height="141px" viewBox="0 0 140 141" version="1.1" xmlns="http://www.w3.org/2000/svg" xmlns:xlink="http://www.w3.org/1999/xlink">
    <!-- Generator: Sketch 53.2 (72643) - https://sketchapp.com -->
    <title>Basic</title>
    <desc>Created with Sketch.</desc>
    <defs>
        <circle id="path-1" cx="62" cy="62" r="62"></circle>
    </defs>
    <g id="Quote-Flow" stroke="none" stroke-width="1" fill="none" fill-rule="evenodd">
        <g id="QF.-09.-Outbuilding" transform="translate(-343.000000, -290.000000)">
            <g id="Basic" transform="translate(343.000000, 290.000000)">
                <g id="Rectangle-+-Rectangle-Copy-35-+-Rectangle-Copy-37-Mask" transform="translate(0.000000, 0.109589)" fill="#F3F3F3" stroke="#FFFFFF" stroke-width="8">
                    <circle id="Mask" cx="70" cy="70" r="66"></circle>
                </g>
                <g id="Garden-stuff" transform="translate(8.000000, 8.000000)">
                    <mask id="mask-2" fill="white">
                        <use xlink:href="#path-1"></use>
                    </mask>
                    <use id="Mask" fill="#F3F3F3" xlink:href="#path-1"></use>
                    <g mask="url(#mask-2)">
                        <g transform="translate(-2.000000, 45.000000)">
                            <path d="M71.0316632,24.135634 C71.0316632,30.2856802 66.0997127,35.2710515 60.0158316,35.2710515 C53.9317364,35.2710515 49,30.2856802 49,24.135634 C49,17.9855878 53.9317364,13 60.0158316,13 C66.0997127,13 71.0316632,17.9855878 71.0316632,24.135634" id="Fill-1" fill="#6BBD6F" fill-rule="evenodd"></path>
                            <path d="M130.031663,24.135634 C130.031663,30.2856802 125.099713,35.2710515 119.015832,35.2710515 C112.931736,35.2710515 108,30.2856802 108,24.135634 C108,17.9855878 112.931736,13 119.015832,13 C125.099713,13 130.031663,17.9855878 130.031663,24.135634" id="Fill-1-Copy" fill="#6BBD6F" fill-rule="evenodd"></path>
                            <path d="M56.7009369,18.4004857 C56.7009369,23.0399338 52.9622929,26.8009714 48.3504684,26.8009714 C43.7382549,26.8009714 40,23.0399338 40,18.4004857 C40,13.7610376 43.7382549,10 48.3504684,10 C52.9622929,10 56.7009369,13.7610376 56.7009369,18.4004857" id="Fill-5" fill="#6BBD6F" fill-rule="evenodd"></path>
                            <path d="M115.700937,18.4004857 C115.700937,23.0399338 111.962293,26.8009714 107.350468,26.8009714 C102.738255,26.8009714 99,23.0399338 99,18.4004857 C99,13.7610376 102.738255,10 107.350468,10 C111.962293,10 115.700937,13.7610376 115.700937,18.4004857" id="Fill-5-Copy" fill="#6BBD6F" fill-rule="evenodd"></path>
                            <path d="M49.112628,25.6436316 C49.112628,30.969554 44.8342114,35.2870055 39.5564418,35.2870055 C34.2784166,35.2870055 30,30.969554 30,25.6436316 C30,20.3177093 34.2784166,16 39.5564418,16 C44.8342114,16 49.112628,20.3177093 49.112628,25.6436316" id="Fill-7" fill="#6BBD6F" fill-rule="evenodd"></path>
                            <path d="M108.112628,25.6436316 C108.112628,30.969554 103.834211,35.2870055 98.5564418,35.2870055 C93.2784166,35.2870055 89,30.969554 89,25.6436316 C89,20.3177093 93.2784166,16 98.5564418,16 C103.834211,16 108.112628,20.3177093 108.112628,25.6436316" id="Fill-7-Copy" fill="#6BBD6F" fill-rule="evenodd"></path>
                            <rect id="Rectangle" fill="#78C97C" fill-rule="nonzero" x="0" y="20" width="126" height="59"></rect>
                            <g id="Group-Copy" stroke-width="1" fill="none" fill-rule="evenodd" transform="translate(5.000000, 0.000000)">
                                <path d="M7.25623583,11.7913832 L7.25623583,11.7913832 C7.75717438,11.7913832 8.16326531,12.1974741 8.16326531,12.6984127 L8.16326531,26.3038549 L6.34920635,26.3038549 L6.34920635,12.6984127 C6.34920635,12.1974741 6.75529728,11.7913832 7.25623583,11.7913832 Z" id="Rectangle" fill="#FFB789" fill-rule="nonzero"></path>
                                <path d="M12.7135892,9.11158874 C13.8335529,10.0693323 14.5124717,11.3244087 14.5124717,12.6984127 C14.5124717,15.704044 11.2637442,18.1405896 7.25623583,18.1405896 C3.24872744,18.1405896 0,15.704044 0,12.6984127 C0,11.3244087 0.678918801,10.0693323 1.79888247,9.11158874 C1.23244233,8.56871564 0.907029478,7.93419123 0.907029478,7.25623583 C0.907029478,6.00980785 2.00696396,4.91018185 3.68242856,4.25701747 C3.64673047,4.05274949 3.62811791,3.8426073 3.62811791,3.62811791 C3.62811791,1.62436372 5.25248163,0 7.25623583,0 C9.25999002,0 10.8843537,1.62436372 10.8843537,3.62811791 C10.8843537,3.8426073 10.8657412,4.05274949 10.8300431,4.25701747 C12.5055077,4.91018185 13.6054422,6.00980785 13.6054422,7.25623583 C13.6054422,7.93419123 13.2800293,8.56871564 12.7135892,9.11158874 Z" id="Combined-Shape" fill="#96D699" fill-rule="nonzero"></path>
                            </g>
                            <g id="Group-Copy" stroke-width="1" fill="none" fill-rule="evenodd" transform="translate(15.000000, 5.000000)">
                                <path d="M7.25623583,11.7913832 L7.25623583,11.7913832 C7.75717438,11.7913832 8.16326531,12.1974741 8.16326531,12.6984127 L8.16326531,26.3038549 L6.34920635,26.3038549 L6.34920635,12.6984127 C6.34920635,12.1974741 6.75529728,11.7913832 7.25623583,11.7913832 Z" id="Rectangle" fill="#FFB789" fill-rule="nonzero"></path>
                                <path d="M12.7135892,9.11158874 C13.8335529,10.0693323 14.5124717,11.3244087 14.5124717,12.6984127 C14.5124717,15.704044 11.2637442,18.1405896 7.25623583,18.1405896 C3.24872744,18.1405896 0,15.704044 0,12.6984127 C0,11.3244087 0.678918801,10.0693323 1.79888247,9.11158874 C1.23244233,8.56871564 0.907029478,7.93419123 0.907029478,7.25623583 C0.907029478,6.00980785 2.00696396,4.91018185 3.68242856,4.25701747 C3.64673047,4.05274949 3.62811791,3.8426073 3.62811791,3.62811791 C3.62811791,1.62436372 5.25248163,0 7.25623583,0 C9.25999002,0 10.8843537,1.62436372 10.8843537,3.62811791 C10.8843537,3.8426073 10.8657412,4.05274949 10.8300431,4.25701747 C12.5055077,4.91018185 13.6054422,6.00980785 13.6054422,7.25623583 C13.6054422,7.93419123 13.2800293,8.56871564 12.7135892,9.11158874 Z" id="Combined-Shape" fill="#96D699" fill-rule="nonzero"></path>
                            </g>
                            <g id="Group-Copy" stroke-width="1" fill="none" fill-rule="evenodd" transform="translate(107.000000, 5.000000)">
                                <path d="M7.25623583,11.7913832 L7.25623583,11.7913832 C7.75717438,11.7913832 8.16326531,12.1974741 8.16326531,12.6984127 L8.16326531,26.3038549 L6.34920635,26.3038549 L6.34920635,12.6984127 C6.34920635,12.1974741 6.75529728,11.7913832 7.25623583,11.7913832 Z" id="Rectangle" fill="#FFB789" fill-rule="nonzero"></path>
                                <path d="M12.7135892,9.11158874 C13.8335529,10.0693323 14.5124717,11.3244087 14.5124717,12.6984127 C14.5124717,15.704044 11.2637442,18.1405896 7.25623583,18.1405896 C3.24872744,18.1405896 0,15.704044 0,12.6984127 C0,11.3244087 0.678918801,10.0693323 1.79888247,9.11158874 C1.23244233,8.56871564 0.907029478,7.93419123 0.907029478,7.25623583 C0.907029478,6.00980785 2.00696396,4.91018185 3.68242856,4.25701747 C3.64673047,4.05274949 3.62811791,3.8426073 3.62811791,3.62811791 C3.62811791,1.62436372 5.25248163,0 7.25623583,0 C9.25999002,0 10.8843537,1.62436372 10.8843537,3.62811791 C10.8843537,3.8426073 10.8657412,4.05274949 10.8300431,4.25701747 C12.5055077,4.91018185 13.6054422,6.00980785 13.6054422,7.25623583 C13.6054422,7.93419123 13.2800293,8.56871564 12.7135892,9.11158874 Z" id="Combined-Shape" fill="#96D699" fill-rule="nonzero"></path>
                            </g>
                            <path d="M104.70115,40.4506284 L104.70115,50.5416566 L98.7514678,50.5416566 L98.7514678,40.4506284 L93.9802999,35 L89.2101994,40.4506284 L89.2101994,50.5416566 L83.2605172,50.5416566 L83.2605172,40.4506284 L78.4914843,35 L78.4904168,35.0010675 L78.4893493,35 L73.7197826,40.4506284 L73.7197826,50.5416566 L67.7701004,50.5416566 L67.7701004,40.4506284 L62.9983988,35 L58.2282983,40.4506284 L58.2282983,50.5416566 L52.2796836,50.5416566 L52.2796836,40.4506284 L47.5101169,35 L47.5090494,35.0010675 L47.5085157,35 L42.738949,40.4506284 L42.738949,50.5416566 L36.7898006,50.5416566 L36.7898006,40.4506284 L32.0191664,35 L27.2479984,40.4506284 L27.2479984,50.5416566 L21.2977825,50.5416566 L21.2977825,40.4506284 L16.5282158,35 L11.7575816,40.4506284 L11.7575816,50.5421903 L8,50.5421903 L8,55.825222 L11.7575816,55.825222 L11.7575816,64.7596196 L8,64.7596196 L8,70.043185 L11.7570479,70.043185 L11.7570479,79.350672 L21.2977825,79.350672 L21.2977825,70.043185 L27.2479984,70.043185 L27.2479984,79.350672 L36.7898006,79.350672 L36.7898006,70.043185 L42.738949,70.043185 L42.738949,79.3501383 L52.2796836,79.3501383 L52.2796836,70.043185 L58.2282983,70.043185 L58.2282983,79.350672 L67.7701004,79.350672 L67.7701004,70.043185 L73.7197826,70.043185 L73.7197826,79.3501383 L73.7197826,79.350672 L83.2605172,79.350672 L83.2605172,79.3501383 L83.2605172,70.043185 L83.2605172,70.0426513 L89.2101994,70.0426513 L89.2101994,79.350672 L98.7514678,79.350672 L98.7514678,70.0426513 L104.70115,70.0426513 L104.70115,79.350672 L114.241885,79.350672 L114.241885,70.0426513 L118,70.0426513 L118,64.7596196 L114.241351,64.7596196 L114.241351,55.825222 L118,55.825222 L118,50.5421903 L114.241351,50.5421903 L114.241351,40.4506284 L109.47125,35 L104.70115,40.4506284 Z M98.7514678,64.7585521 L104.70115,64.7585521 L104.70115,55.825222 L98.7514678,55.825222 L98.7514678,64.7585521 Z M83.2605172,64.7596196 L89.2096657,64.7596196 L89.2096657,55.825222 L83.2605172,55.825222 L83.2605172,64.7596196 Z M67.7701004,64.7585521 L73.7197826,64.7585521 L73.7197826,55.825222 L67.7701004,55.825222 L67.7701004,64.7585521 Z M52.2796836,64.7596196 L58.2288321,64.7596196 L58.2288321,55.825222 L52.2796836,55.825222 L52.2796836,64.7596196 Z M36.7898006,64.7596196 L42.738949,64.7596196 L42.738949,55.825222 L36.7898006,55.825222 L36.7898006,64.7596196 Z M21.2977825,64.7585521 L27.2474647,64.7585521 L27.2474647,55.825222 L21.2977825,55.825222 L21.2977825,64.7585521 Z" id="Fill-1" fill="#FFFFFF" fill-rule="evenodd"></path>
                        </g>
                    </g>
                </g>
            </g>
        </g>
    </g>
</svg>